if (_typeface_js && _typeface_js.loadFace) _typeface_js.loadFace({"glyphs":{"¦":{"x_min":253,"x_max":444,"ha":694,"o":"m 444 277 l 444 -237 l 253 -237 l 253 277 l 444 277 m 444 971 l 444 457 l 253 457 l 253 971 l 444 971 "},"Ž":{"x_min":66,"x_max":1015,"ha":1075,"o":"m 66 0 l 66 283 l 567 817 l 82 817 l 82 1086 l 1000 1086 l 1000 837 l 467 273 l 1015 273 l 1015 0 l 66 0 m 323 1367 l 419 1367 l 538 1265 l 656 1367 l 753 1367 l 618 1174 l 457 1174 l 323 1367 "},"Á":{"x_min":-54,"x_max":1034,"ha":993,"o":"m 413 379 l 607 379 l 548 614 q 530 718 537 658 q 519 854 523 778 l 510 854 q 500 731 508 791 q 476 613 492 671 l 413 379 m -54 0 l 347 1086 l 696 1086 l 1034 0 l 700 0 l 661 161 l 354 161 l 308 0 l -54 0 m 411 1174 l 545 1367 l 746 1367 l 508 1174 l 411 1174 "},"Î":{"x_min":53,"x_max":483,"ha":536,"o":"m 104 0 l 104 1086 l 430 1086 l 430 0 l 104 0 m 53 1174 l 187 1367 l 348 1367 l 483 1174 l 386 1174 l 268 1275 l 149 1174 l 53 1174 "},"e":{"x_min":37,"x_max":885,"ha":920,"o":"m 872 243 q 733 49 843 121 q 465 -22 623 -22 q 152 91 268 -22 q 37 399 37 205 q 154 695 37 580 q 458 810 272 810 q 771 685 657 810 q 885 339 885 560 l 885 321 l 322 321 q 372 219 332 255 q 473 183 412 183 q 540 198 512 183 q 581 243 568 214 l 872 243 m 328 486 l 600 486 q 553 574 589 543 q 461 605 517 605 q 376 573 411 605 q 328 486 342 542 "},"»":{"x_min":37,"x_max":600,"ha":643,"o":"m 301 260 l 37 50 l 37 311 l 169 399 l 37 488 l 37 751 l 301 537 l 301 260 m 600 260 l 336 50 l 336 311 l 467 399 l 336 488 l 336 751 l 600 537 l 600 260 "},"∆":{"x_min":-4,"x_max":1023,"ha":1021,"o":"m 649 210 l 509 687 l 369 210 l 649 210 m 671 999 l 1023 0 l -4 0 l 347 999 l 671 999 "},"ò":{"x_min":40,"x_max":882,"ha":922,"o":"m 459 196 q 547 246 517 196 q 578 393 578 296 q 547 541 578 490 q 459 592 517 592 q 372 541 402 592 q 343 393 343 491 q 372 245 343 295 q 459 196 402 196 m 461 -22 q 152 88 265 -22 q 40 393 40 199 q 152 698 40 586 q 461 810 265 810 q 769 698 657 810 q 882 393 882 586 q 769 88 882 199 q 461 -22 657 -22 m 571 885 l 473 885 l 236 1076 l 436 1076 l 571 885 "},"^":{"x_min":279,"x_max":1108,"ha":1389,"o":"m 808 991 l 1108 608 l 902 608 l 694 817 l 484 608 l 279 608 l 578 991 l 808 991 "},"«":{"x_min":43,"x_max":606,"ha":643,"o":"m 342 260 l 342 537 l 606 751 l 606 488 l 473 399 l 606 311 l 606 50 l 342 260 m 43 260 l 43 537 l 307 751 l 307 488 l 175 399 l 307 311 l 307 50 l 43 260 "},"∙":{"x_min":81,"x_max":423,"ha":503,"o":"m 81 546 q 130 666 81 616 q 252 717 180 717 q 372 666 322 717 q 423 546 423 616 q 372 424 423 474 q 252 375 322 375 q 130 424 180 375 q 81 546 81 474 "},"í":{"x_min":81,"x_max":451,"ha":457,"o":"m 81 0 l 81 787 l 377 787 l 377 0 l 81 0 m 116 885 l 250 1078 l 451 1078 l 213 885 l 116 885 "},"ˆ":{"x_min":132,"x_max":562,"ha":694,"o":"m 132 885 l 266 1078 l 427 1078 l 562 885 l 465 885 l 347 986 l 228 885 l 132 885 "},"µ":{"x_min":-20,"x_max":900,"ha":930,"o":"m 408 737 l 351 320 q 349 297 349 305 q 348 284 348 289 q 369 216 348 238 q 434 194 391 194 q 518 229 488 194 q 559 338 549 264 l 616 737 l 900 737 l 792 0 l 543 0 l 555 88 q 499 19 531 42 q 427 -3 467 -3 q 356 18 386 -3 q 308 81 326 39 l 259 -286 l -20 -286 l 122 737 l 408 737 "},"č":{"x_min":40,"x_max":885,"ha":925,"o":"m 885 328 q 768 68 873 159 q 479 -22 663 -22 q 156 87 273 -22 q 40 388 40 197 q 65 561 40 490 q 147 687 91 633 q 289 779 208 748 q 467 810 370 810 q 758 726 651 810 q 885 488 866 643 l 593 488 q 558 565 588 538 q 479 592 529 592 q 376 542 411 592 q 342 395 342 492 q 376 247 342 298 q 474 196 411 196 q 563 229 531 196 q 599 328 594 262 l 885 328 m 268 1078 l 364 1078 l 483 976 l 601 1078 l 698 1078 l 563 885 l 402 885 l 268 1078 "},"’":{"x_min":109,"x_max":376,"ha":485,"o":"m 109 819 l 109 1086 l 376 1086 l 376 870 q 304 651 376 732 q 111 571 232 571 l 109 571 l 109 688 q 194 730 165 698 q 223 814 223 762 l 223 819 l 109 819 "},"-":{"x_min":35,"x_max":431,"ha":467,"o":"m 35 267 l 35 534 l 431 534 l 431 267 l 35 267 "},"Q":{"x_min":52,"x_max":1129,"ha":1164,"o":"m 639 238 l 534 345 l 678 493 l 772 400 q 782 469 779 434 q 786 544 786 505 q 732 770 786 690 q 583 850 679 850 q 436 766 491 850 q 381 540 381 683 q 436 313 381 391 q 599 236 492 236 q 613 236 605 236 q 639 238 622 237 m 838 39 q 718 -9 780 6 q 590 -26 657 -26 q 383 12 479 -26 q 213 125 288 50 q 92 311 133 205 q 52 546 52 417 q 89 772 52 670 q 200 955 126 874 q 369 1072 273 1033 q 582 1112 465 1112 q 792 1074 697 1112 q 960 960 887 1036 q 1076 778 1037 882 q 1115 548 1115 674 q 1086 340 1115 432 q 996 177 1057 248 l 1129 46 l 982 -108 l 838 39 "},"M":{"x_min":94,"x_max":1271,"ha":1368,"o":"m 94 0 l 94 1086 l 538 1086 l 646 627 q 671 498 663 557 q 679 385 679 440 l 689 386 q 699 514 692 454 q 718 626 707 574 l 826 1086 l 1271 1086 l 1271 0 l 966 0 l 966 552 q 969 688 966 637 q 981 776 973 740 l 973 779 q 961 708 967 739 q 949 648 956 677 l 811 0 l 550 0 l 412 648 q 396 728 402 699 q 388 779 391 757 l 380 776 q 392 688 388 740 q 396 552 396 637 l 396 0 l 94 0 "},"œ":{"x_min":40,"x_max":1407,"ha":1442,"o":"m 851 486 l 1122 486 q 1076 573 1111 543 q 984 604 1041 604 q 899 573 934 604 q 851 486 864 542 m 1394 243 q 1256 50 1365 123 q 994 -22 1147 -22 q 832 4 900 -22 q 719 86 765 31 q 612 5 677 32 q 461 -22 547 -22 q 298 2 368 -22 q 172 78 228 26 q 73 217 107 137 q 40 392 40 296 q 153 697 40 584 q 462 809 267 809 q 613 783 548 809 q 726 702 678 757 q 835 783 771 756 q 984 811 899 811 q 1293 684 1180 811 q 1407 339 1407 558 l 1407 321 l 844 321 q 894 219 854 255 q 995 183 934 183 q 1062 198 1034 183 q 1103 243 1090 214 l 1394 243 m 463 196 q 547 249 517 196 q 578 398 578 302 q 548 540 578 490 q 463 591 518 591 q 374 540 406 591 q 343 395 343 489 q 374 247 343 298 q 463 196 405 196 "},"{":{"x_min":98,"x_max":614,"ha":694,"o":"m 614 809 q 598 809 608 809 q 584 810 588 810 q 505 790 525 810 q 485 703 485 769 l 485 542 q 453 413 485 451 q 337 361 421 376 q 453 308 421 345 q 485 181 485 271 l 485 17 q 505 -67 485 -47 q 583 -88 525 -88 q 598 -87 588 -88 q 614 -87 608 -87 l 614 -280 l 559 -280 q 416 -272 465 -280 q 335 -249 366 -265 q 277 -192 294 -229 q 261 -65 261 -155 l 261 109 q 229 231 261 195 q 121 266 197 266 q 110 265 118 266 q 98 265 102 265 l 98 458 q 110 457 102 458 q 121 456 118 456 q 229 491 197 456 q 261 612 261 526 l 261 786 q 277 913 261 876 q 335 971 294 951 q 416 994 367 987 q 559 1002 466 1002 l 614 1002 l 614 809 "},"¼":{"x_min":120,"x_max":1480,"ha":1500,"o":"m 1031 261 l 1198 261 l 1198 430 l 1031 261 m 1196 1 l 1196 129 l 895 129 l 895 280 l 1196 593 l 1391 593 l 1391 263 l 1480 263 l 1480 129 l 1391 129 l 1391 1 l 1196 1 m 401 -20 l 943 1076 l 1095 1076 l 555 -20 l 401 -20 m 269 466 l 269 810 l 120 810 l 120 932 q 249 962 207 933 q 300 1059 291 991 l 461 1059 l 461 466 l 269 466 "},"#":{"x_min":-4,"x_max":1072,"ha":1068,"o":"m 641 565 l 479 565 l 426 421 l 588 421 l 641 565 m 636 997 l 548 748 l 702 748 l 789 997 l 985 997 l 898 748 l 1072 748 l 1004 565 l 833 565 l 781 421 l 956 421 l 888 238 l 716 238 l 627 -11 l 431 -11 l 520 238 l 366 238 l 278 -11 l 82 -11 l 170 238 l -4 238 l 63 421 l 235 421 l 286 565 l 111 565 l 177 748 l 352 748 l 440 997 l 636 997 "},"Ê":{"x_min":94,"x_max":990,"ha":1044,"o":"m 94 0 l 94 1086 l 980 1086 l 980 823 l 409 823 l 409 681 l 903 681 l 903 440 l 409 440 l 409 273 l 990 273 l 990 0 l 94 0 m 342 1174 l 476 1367 l 637 1367 l 772 1174 l 675 1174 l 557 1275 l 438 1174 l 342 1174 "},")":{"x_min":57,"x_max":489,"ha":562,"o":"m 333 -247 l 57 -247 q 157 79 124 -85 q 191 417 191 244 q 156 750 191 581 q 57 1086 122 919 l 333 1086 q 451 730 414 891 q 489 417 489 568 q 451 102 489 264 q 333 -247 413 -59 "},"Å":{"x_min":-54,"x_max":1034,"ha":993,"o":"m 412 379 l 605 379 l 547 614 q 528 718 535 658 q 518 854 521 778 l 508 854 q 499 731 507 791 q 474 613 490 671 l 412 379 m 449 1302 q 471 1247 449 1270 q 526 1225 493 1225 q 581 1247 558 1225 q 604 1302 604 1270 q 581 1357 604 1334 q 526 1380 558 1380 q 471 1357 494 1380 q 449 1302 449 1334 m 343 1302 q 396 1432 343 1379 q 526 1486 449 1486 q 656 1432 603 1486 q 710 1302 710 1379 q 656 1172 710 1225 q 526 1119 603 1119 q 396 1172 449 1119 q 343 1302 343 1225 m -54 0 l 347 1086 l 694 1086 l 1034 0 l 698 0 l 659 161 l 353 161 l 308 0 l -54 0 "},"¸":{"x_min":193,"x_max":544,"ha":694,"o":"m 193 -275 l 193 -191 q 287 -211 243 -204 q 357 -219 331 -219 q 399 -208 385 -219 q 414 -175 414 -197 q 398 -145 414 -154 q 343 -136 382 -136 q 322 -136 330 -136 q 309 -136 315 -136 l 309 0 l 384 0 l 384 -58 l 394 -58 q 505 -88 467 -58 q 544 -175 544 -118 q 501 -270 544 -236 q 381 -305 458 -305 q 294 -297 342 -305 q 193 -275 247 -290 "},"a":{"x_min":39,"x_max":895.234375,"ha":932,"o":"m 73 513 q 175 736 79 662 q 460 810 271 810 q 606 798 542 810 q 714 763 670 786 q 829 662 796 723 q 862 483 862 602 l 862 70 q 870 41 862 54 q 895 21 878 29 l 895 0 l 588 0 l 578 87 q 473 3 532 29 q 321 -22 414 -22 q 115 42 191 -22 q 39 215 39 106 q 108 381 39 323 q 344 468 177 439 q 407 478 367 472 q 563 550 563 502 q 538 597 563 581 q 467 614 514 614 q 386 589 413 614 q 352 513 358 565 l 73 513 m 574 358 q 472 316 544 333 q 463 314 466 314 q 351 276 376 293 q 327 232 327 259 q 355 185 327 204 q 428 167 383 167 q 537 207 499 167 q 575 325 575 248 q 575 345 575 338 q 574 358 575 352 "},"=":{"x_min":172,"x_max":984,"ha":1157,"o":"m 984 347 l 984 163 l 172 163 l 172 347 l 984 347 m 984 666 l 984 482 l 172 482 l 172 666 l 984 666 "},"˚":{"x_min":193,"x_max":503,"ha":694,"o":"m 289 1033 q 306 991 289 1008 q 348 975 323 975 q 390 991 373 975 q 407 1033 407 1008 q 390 1076 407 1059 q 348 1093 373 1093 q 305 1075 322 1093 q 289 1033 289 1058 m 193 1035 q 237 1144 193 1099 q 347 1189 282 1189 q 457 1143 411 1189 q 503 1035 503 1098 q 457 924 503 969 q 347 879 412 879 q 237 924 282 879 q 193 1035 193 969 "},"ú":{"x_min":71,"x_max":877,"ha":954,"o":"m 877 787 l 877 0 l 596 0 l 596 121 q 481 15 545 50 q 336 -20 416 -20 q 141 61 212 -20 q 71 287 71 143 l 71 787 l 367 787 l 367 335 q 393 254 367 283 q 469 226 420 226 q 549 256 518 226 q 581 335 581 287 l 581 787 l 877 787 m 368 885 l 502 1078 l 703 1078 l 465 885 l 368 885 "},"¯":{"x_min":144,"x_max":550,"ha":694,"o":"m 144 926 l 144 1036 l 550 1036 l 550 926 l 144 926 "},"Z":{"x_min":66,"x_max":1015,"ha":1075,"o":"m 66 0 l 66 283 l 567 817 l 82 817 l 82 1086 l 1000 1086 l 1000 837 l 467 273 l 1015 273 l 1015 0 l 66 0 "},"u":{"x_min":71,"x_max":877,"ha":954,"o":"m 877 787 l 877 0 l 596 0 l 596 121 q 481 15 545 50 q 336 -20 416 -20 q 141 61 212 -20 q 71 287 71 143 l 71 787 l 367 787 l 367 335 q 393 254 367 283 q 469 226 420 226 q 549 256 518 226 q 581 335 581 287 l 581 787 l 877 787 "},"k":{"x_min":78,"x_max":924,"ha":896,"o":"m 78 0 l 78 1086 l 374 1086 l 374 551 l 562 787 l 904 787 l 615 477 l 924 0 l 582 0 l 421 298 l 374 250 l 374 0 l 78 0 "},"Ù":{"x_min":93,"x_max":1044,"ha":1137,"o":"m 93 1086 l 411 1086 l 411 420 q 451 281 411 329 q 569 234 492 234 q 685 281 645 234 q 726 420 726 329 l 726 1086 l 1044 1086 l 1044 449 q 927 91 1044 207 q 566 -24 810 -24 q 209 92 325 -24 q 93 449 93 208 l 93 1086 m 679 1174 l 581 1174 l 344 1365 l 544 1365 l 679 1174 "},"¢":{"x_min":81,"x_max":926.359375,"ha":1007,"o":"m 431 233 l 543 584 q 528 586 536 585 q 505 587 519 587 q 406 534 443 587 q 370 391 370 481 q 384 301 370 339 q 431 233 399 263 m 347 0 q 149 144 218 44 q 81 388 81 244 q 195 697 81 587 q 518 808 310 808 q 560 806 538 808 q 606 803 582 805 l 665 992 l 787 992 l 718 773 q 862 662 809 734 q 926 487 914 590 l 636 487 l 627 513 l 525 200 l 528 200 q 608 232 580 200 q 642 328 636 264 l 925 328 q 807 67 911 157 q 518 -22 703 -22 q 484 -21 496 -22 q 462 -20 473 -21 l 390 -247 l 268 -247 l 347 0 "},"Ş":{"x_min":58,"x_max":1012,"ha":1068,"o":"m 58 373 l 390 373 l 390 369 q 427 254 390 292 q 540 216 464 216 q 650 239 611 216 q 689 307 689 263 q 476 423 689 368 q 423 437 442 432 q 154 568 240 486 q 69 776 69 649 q 190 1024 69 934 q 526 1114 311 1114 q 853 1021 736 1114 q 975 760 970 928 l 660 760 q 625 852 658 823 q 518 881 591 881 q 424 858 458 881 q 390 799 390 836 q 618 683 390 741 l 627 681 q 787 635 738 652 q 865 600 837 618 q 977 491 943 550 q 1012 347 1012 432 q 889 73 1012 171 q 546 -25 767 -25 q 186 73 306 -25 q 58 373 65 172 m 380 -275 l 380 -191 q 474 -211 430 -204 q 544 -219 518 -219 q 586 -208 572 -219 q 601 -175 601 -197 q 585 -145 601 -154 q 530 -136 569 -136 q 509 -136 517 -136 q 496 -136 502 -136 l 496 0 l 571 0 l 571 -58 l 581 -58 q 692 -88 654 -58 q 731 -175 731 -118 q 688 -270 731 -236 q 568 -305 645 -305 q 481 -297 529 -305 q 380 -275 434 -290 "},"é":{"x_min":37,"x_max":885,"ha":920,"o":"m 872 243 q 733 49 843 121 q 465 -22 623 -22 q 152 91 268 -22 q 37 399 37 205 q 154 695 37 580 q 458 810 272 810 q 771 685 657 810 q 885 339 885 560 l 885 321 l 322 321 q 372 219 332 255 q 473 183 412 183 q 540 198 512 183 q 581 243 568 214 l 872 243 m 328 486 l 600 486 q 553 574 589 543 q 461 605 517 605 q 376 573 411 605 q 328 486 342 542 m 360 885 l 494 1078 l 695 1078 l 457 885 l 360 885 "},"B":{"x_min":94,"x_max":1057,"ha":1111,"o":"m 412 838 l 412 662 l 567 662 q 665 682 635 662 q 695 752 695 703 q 664 817 695 797 q 565 838 634 838 l 412 838 m 412 457 l 412 252 l 596 252 q 697 277 664 252 q 731 354 731 302 q 697 431 731 406 q 592 457 663 457 l 412 457 m 94 0 l 94 1086 l 629 1086 q 770 1076 713 1086 q 860 1049 827 1067 q 972 945 935 1005 q 1010 807 1010 885 q 977 684 1010 736 q 880 598 945 632 q 1011 495 966 563 q 1057 336 1057 428 q 1036 216 1057 272 q 976 116 1015 161 q 837 26 920 53 q 599 0 754 0 l 94 0 "},"…":{"x_min":80,"x_max":1310,"ha":1389,"o":"m 80 0 l 80 302 l 383 302 l 383 0 l 80 0 m 543 0 l 543 302 l 846 302 l 846 0 l 543 0 m 1007 0 l 1007 302 l 1310 302 l 1310 0 l 1007 0 "},"H":{"x_min":94,"x_max":1022,"ha":1117,"o":"m 94 0 l 94 1086 l 412 1086 l 412 698 l 704 698 l 704 1086 l 1022 1086 l 1022 0 l 704 0 l 704 427 l 412 427 l 412 0 l 94 0 "},"î":{"x_min":11,"x_max":441,"ha":457,"o":"m 81 0 l 81 787 l 377 787 l 377 0 l 81 0 m 11 885 l 145 1078 l 306 1078 l 441 885 l 344 885 l 226 986 l 107 885 l 11 885 "},"−":{"x_min":172,"x_max":984,"ha":1157,"o":"m 984 509 l 984 321 l 172 321 l 172 509 l 984 509 "},"≠":{"x_min":172,"x_max":984,"ha":1157,"o":"m 938 756 l 862 662 l 984 662 l 984 486 l 741 486 l 624 343 l 984 343 l 984 165 l 506 165 l 342 -37 l 208 70 l 284 165 l 172 165 l 172 343 l 402 343 l 517 486 l 172 486 l 172 662 l 639 662 l 805 866 l 938 756 "},"¥":{"x_min":9,"x_max":972,"ha":982,"o":"m 9 1059 l 338 1059 l 454 763 q 462 742 456 757 q 491 629 489 674 l 500 629 q 530 744 502 673 q 537 763 534 756 l 654 1059 l 972 1059 l 789 685 l 972 685 l 972 570 l 736 570 l 687 472 l 972 472 l 972 357 l 644 357 l 644 0 l 347 0 l 347 357 l 9 357 l 9 472 l 300 472 l 254 570 l 9 570 l 9 685 l 198 685 l 9 1059 "},"U":{"x_min":93,"x_max":1044,"ha":1137,"o":"m 93 1086 l 411 1086 l 411 420 q 451 281 411 329 q 569 234 492 234 q 685 281 645 234 q 726 420 726 329 l 726 1086 l 1044 1086 l 1044 449 q 927 91 1044 207 q 566 -24 810 -24 q 209 92 325 -24 q 93 449 93 208 l 93 1086 "},"Ñ":{"x_min":94,"x_max":1028,"ha":1121,"o":"m 94 0 l 94 1086 l 419 1086 l 675 602 q 716 515 700 555 q 740 439 732 475 l 748 444 q 728 534 734 484 q 722 674 722 585 l 722 1086 l 1028 1086 l 1028 0 l 705 0 l 442 505 q 406 585 422 544 q 380 669 391 626 l 372 665 q 393 565 386 620 q 400 433 400 509 l 400 0 l 94 0 m 424 1181 l 356 1181 q 406 1300 371 1261 q 495 1340 440 1340 q 517 1338 505 1340 q 542 1333 528 1336 l 630 1311 q 647 1308 638 1309 q 664 1307 655 1307 q 703 1320 687 1307 q 725 1357 718 1333 l 793 1357 q 741 1238 779 1280 q 648 1197 703 1197 q 627 1198 637 1197 q 607 1203 617 1200 l 514 1227 q 504 1230 510 1229 q 486 1231 499 1231 q 445 1218 461 1231 q 424 1181 430 1206 "},"F":{"x_min":94,"x_max":932,"ha":957,"o":"m 94 0 l 94 1086 l 932 1086 l 932 816 l 416 816 l 416 652 l 852 652 l 852 394 l 416 394 l 416 0 l 94 0 "},"*":{"x_min":39,"x_max":721,"ha":758,"o":"m 380 614 l 252 429 l 100 538 l 240 716 l 39 772 l 96 949 l 291 879 l 291 1086 l 469 1086 l 469 879 l 662 948 l 721 770 l 517 717 l 660 538 l 506 431 l 380 614 "},"†":{"x_min":17,"x_max":742,"ha":758,"o":"m 252 -182 l 252 583 l 17 583 l 17 794 l 252 794 l 252 1086 l 509 1086 l 509 794 l 742 794 l 742 583 l 509 583 l 509 -182 l 252 -182 "},"∕":{"x_min":-232,"x_max":462,"ha":232,"o":"m -232 -20 l 309 1076 l 462 1076 l -78 -20 l -232 -20 "},"°":{"x_min":10,"x_max":447,"ha":457,"o":"m 332 781 q 301 853 332 823 q 227 884 270 884 q 155 853 185 884 q 125 781 125 823 q 155 707 125 737 q 228 677 185 677 q 301 708 271 677 q 332 781 332 739 m 229 999 q 383 935 320 999 q 447 779 447 871 q 382 626 447 690 q 228 562 318 562 q 73 625 137 562 q 10 779 10 688 q 74 934 10 870 q 229 999 139 999 "},"å":{"x_min":39,"x_max":895.234375,"ha":932,"o":"m 394 1039 q 416 984 394 1007 q 471 962 438 962 q 526 984 503 962 q 549 1039 549 1007 q 526 1094 549 1071 q 471 1117 503 1117 q 416 1094 439 1117 q 394 1039 394 1071 m 288 1039 q 341 1169 288 1116 q 471 1223 394 1223 q 601 1169 548 1223 q 655 1039 655 1116 q 601 909 655 962 q 471 856 548 856 q 341 908 394 856 q 288 1036 288 960 l 288 1039 m 73 513 q 175 736 79 662 q 460 810 271 810 q 606 798 542 810 q 714 763 670 786 q 829 662 796 723 q 862 483 862 602 l 862 70 q 870 41 862 54 q 895 21 878 29 l 895 0 l 588 0 l 578 87 q 473 3 532 29 q 321 -22 414 -22 q 115 42 191 -22 q 39 215 39 106 q 108 381 39 323 q 344 468 177 439 q 407 478 367 472 q 563 550 563 502 q 538 597 563 581 q 467 614 514 614 q 386 589 413 614 q 352 513 358 565 l 73 513 m 574 358 q 472 316 544 333 q 463 314 466 314 q 351 276 376 293 q 327 232 327 259 q 355 185 327 204 q 428 167 383 167 q 537 207 499 167 q 575 325 575 248 q 575 345 575 338 q 574 358 575 352 "},"0":{"x_min":39,"x_max":967,"ha":1007,"o":"m 39 528 q 157 937 39 798 q 503 1076 275 1076 q 848 936 730 1076 q 967 528 967 797 q 849 119 967 258 q 503 -20 731 -20 q 157 119 275 -20 q 39 528 39 259 m 660 528 q 623 760 660 693 q 502 828 587 828 q 381 761 417 828 q 345 528 345 694 q 381 299 345 366 q 502 232 417 232 q 623 299 587 232 q 660 528 660 366 "},"":{"x_min":77,"x_max":1021,"ha":1097,"o":"m 567 824 q 566 834 566 828 q 565 849 565 839 q 630 1005 565 934 q 790 1094 694 1077 q 791 1079 791 1087 q 791 1052 791 1070 q 721 893 791 963 q 583 823 651 823 l 578 823 q 573 824 576 823 q 567 824 570 824 m 1021 273 q 881 40 943 105 q 743 -24 820 -24 q 654 -1 709 -24 q 571 20 599 20 q 482 -1 540 20 q 396 -24 424 -24 q 309 5 353 -24 q 221 95 265 35 q 114 295 152 190 q 77 499 77 401 q 161 741 77 648 q 380 835 246 835 q 485 811 426 835 q 569 788 544 788 q 652 811 592 788 q 755 835 711 835 q 890 808 830 835 q 999 725 950 781 q 896 626 929 681 q 863 502 863 571 q 903 366 863 425 q 1021 273 944 307 "},"”":{"x_min":109,"x_max":753,"ha":860,"o":"m 486 819 l 486 1086 l 753 1086 l 753 870 q 681 651 753 732 q 488 571 609 571 l 486 571 l 486 688 q 571 730 542 698 q 600 814 600 762 l 600 819 l 486 819 m 109 819 l 109 1086 l 376 1086 l 376 870 q 304 651 376 732 q 111 571 232 571 l 109 571 l 109 688 q 194 730 165 698 q 223 814 223 762 l 223 819 l 109 819 "},"ö":{"x_min":40,"x_max":882,"ha":922,"o":"m 459 196 q 547 246 517 196 q 578 393 578 296 q 547 541 578 490 q 459 592 517 592 q 372 541 402 592 q 343 393 343 491 q 372 245 343 295 q 459 196 402 196 m 461 -22 q 152 88 265 -22 q 40 393 40 199 q 152 698 40 586 q 461 810 265 810 q 769 698 657 810 q 882 393 882 586 q 769 88 882 199 q 461 -22 657 -22 m 499 893 l 499 1071 l 664 1071 l 664 893 l 499 893 m 259 893 l 259 1071 l 424 1071 l 424 893 l 259 893 "},"Õ":{"x_min":52,"x_max":1115,"ha":1164,"o":"m 381 540 q 435 315 381 395 q 589 236 490 236 q 731 320 677 236 q 786 546 786 404 q 730 770 786 690 q 577 850 675 850 q 435 765 489 850 q 381 540 381 681 m 52 546 q 88 774 52 672 q 200 958 125 875 q 365 1073 270 1034 q 576 1112 460 1112 q 784 1074 688 1112 q 954 962 880 1036 q 1074 775 1034 881 q 1115 539 1115 668 q 1078 313 1115 415 q 966 131 1041 211 q 800 13 895 53 q 589 -26 705 -26 q 382 11 477 -26 q 214 123 287 49 q 92 310 133 205 q 52 546 52 415 m 432 1181 l 364 1181 q 414 1300 379 1261 q 503 1340 448 1340 q 525 1338 513 1340 q 550 1333 536 1336 l 638 1311 q 655 1308 646 1309 q 672 1307 663 1307 q 711 1320 695 1307 q 733 1357 726 1333 l 801 1357 q 749 1238 787 1280 q 656 1197 711 1197 q 635 1198 645 1197 q 615 1203 625 1200 l 522 1227 q 512 1230 518 1229 q 494 1231 507 1231 q 453 1218 469 1231 q 432 1181 438 1206 "},"ć":{"x_min":40,"x_max":885,"ha":925,"o":"m 885 328 q 768 68 873 159 q 479 -22 663 -22 q 156 87 273 -22 q 40 388 40 197 q 65 561 40 490 q 147 687 91 633 q 289 779 208 748 q 467 810 370 810 q 758 726 651 810 q 885 488 866 643 l 593 488 q 558 565 588 538 q 479 592 529 592 q 376 542 411 592 q 342 395 342 492 q 376 247 342 298 q 474 196 411 196 q 563 229 531 196 q 599 328 594 262 l 885 328 m 373 885 l 507 1078 l 708 1078 l 470 885 l 373 885 "},"þ":{"x_min":78,"x_max":908,"ha":949,"o":"m 489 199 q 580 246 551 199 q 610 392 610 293 q 580 538 610 491 q 489 586 551 586 q 397 538 426 586 q 367 392 367 490 q 396 245 367 292 q 489 199 426 199 m 374 72 l 374 -248 l 78 -248 l 78 1086 l 374 1086 l 374 710 q 460 782 409 758 q 582 807 512 807 q 819 695 731 807 q 908 393 908 583 q 819 90 908 202 q 582 -21 731 -21 q 461 2 512 -21 q 374 72 409 25 "},"]":{"x_min":40,"x_max":489,"ha":562,"o":"m 489 -263 l 40 -263 l 40 -45 l 191 -45 l 191 868 l 40 868 l 40 1086 l 489 1086 l 489 -263 "},"8":{"x_min":39,"x_max":955,"ha":1007,"o":"m 339 350 q 380 254 339 289 q 494 219 422 219 q 614 252 571 219 q 657 347 657 286 q 616 441 657 409 q 499 473 576 473 q 379 441 420 473 q 339 350 339 410 m 353 745 q 393 665 353 694 q 505 637 433 637 q 609 666 570 637 q 649 745 649 696 q 609 822 649 793 q 504 851 570 851 q 394 821 436 851 q 353 745 353 792 m 227 556 q 114 643 152 588 q 77 777 77 699 q 190 996 77 917 q 507 1076 304 1076 q 810 993 700 1076 q 920 769 920 911 q 882 641 920 694 q 769 557 844 588 q 906 468 857 531 q 955 316 955 405 q 836 68 955 155 q 494 -18 717 -18 q 321 -3 395 -18 q 197 41 247 11 q 81 158 123 86 q 39 311 39 229 q 86 465 39 403 q 227 556 134 527 "},"R":{"x_min":94,"x_max":1062.671875,"ha":1117,"o":"m 413 616 l 577 616 q 690 642 652 616 q 728 721 728 669 q 691 804 728 776 q 580 832 654 832 l 413 832 l 413 616 m 94 0 l 94 1086 l 637 1086 q 936 1001 830 1086 q 1043 765 1043 917 q 992 603 1043 670 q 848 506 942 535 q 980 422 941 476 q 1023 259 1019 367 q 1025 162 1024 222 q 1057 42 1026 43 l 1062 42 l 1062 0 l 737 0 q 710 144 717 55 q 698 259 704 232 q 648 355 684 326 q 542 384 612 384 l 413 384 l 413 0 l 94 0 "},"o":{"x_min":40,"x_max":882,"ha":922,"o":"m 459 196 q 547 246 517 196 q 578 393 578 296 q 547 541 578 490 q 459 592 517 592 q 372 541 402 592 q 343 393 343 491 q 372 245 343 295 q 459 196 402 196 m 461 -22 q 152 88 265 -22 q 40 393 40 199 q 152 698 40 586 q 461 810 265 810 q 769 698 657 810 q 882 393 882 586 q 769 88 882 199 q 461 -22 657 -22 "},"5":{"x_min":46,"x_max":957,"ha":1007,"o":"m 351 355 q 404 264 363 299 q 500 230 446 230 q 609 274 566 230 q 653 382 653 318 q 610 481 653 440 q 509 522 568 522 q 436 508 470 522 q 374 467 402 494 l 86 467 l 200 1061 l 890 1061 l 890 808 l 425 808 l 401 683 q 491 725 444 711 q 589 739 538 739 q 853 639 749 739 q 957 386 957 540 q 837 90 957 201 q 515 -20 717 -20 q 196 68 314 -20 q 46 334 79 157 l 351 355 "},"õ":{"x_min":40,"x_max":882,"ha":922,"o":"m 459 196 q 547 246 517 196 q 578 393 578 296 q 547 541 578 490 q 459 592 517 592 q 372 541 402 592 q 343 393 343 491 q 372 245 343 295 q 459 196 402 196 m 461 -22 q 152 88 265 -22 q 40 393 40 199 q 152 698 40 586 q 461 810 265 810 q 769 698 657 810 q 882 393 882 586 q 769 88 882 199 q 461 -22 657 -22 m 311 892 l 243 892 q 293 1011 258 972 q 382 1051 327 1051 q 404 1049 392 1051 q 429 1044 415 1047 l 517 1022 q 534 1019 525 1020 q 551 1018 542 1018 q 590 1031 574 1018 q 612 1068 605 1044 l 680 1068 q 628 949 666 991 q 535 908 590 908 q 514 909 524 908 q 494 914 504 911 l 401 938 q 391 941 397 940 q 373 942 386 942 q 332 929 348 942 q 311 892 317 917 "},",":{"x_min":100,"x_max":403,"ha":503,"o":"m 100 0 l 100 302 l 403 302 l 403 13 q 322 -202 403 -123 q 100 -285 241 -281 l 100 -126 q 189 -90 158 -122 q 223 0 221 -59 l 100 0 "},"d":{"x_min":40,"x_max":871,"ha":949,"o":"m 339 392 q 368 246 339 293 q 459 199 398 199 q 551 246 522 199 q 581 392 581 293 q 551 538 581 490 q 459 586 521 586 q 368 538 398 586 q 339 392 339 491 m 585 83 q 490 3 543 28 q 366 -22 438 -22 q 128 89 216 -22 q 40 392 40 201 q 128 694 40 582 q 366 806 216 806 q 486 782 434 806 q 575 711 539 758 l 575 1086 l 871 1086 l 871 0 l 585 0 l 585 83 "},"\"":{"x_min":46,"x_max":467,"ha":514,"o":"m 467 977 l 467 595 l 292 595 l 292 977 l 467 977 m 221 977 l 221 595 l 46 595 l 46 977 l 221 977 "},"˙":{"x_min":262,"x_max":432,"ha":694,"o":"m 262 890 l 262 1073 l 432 1073 l 432 890 l 262 890 "},"ê":{"x_min":37,"x_max":885,"ha":920,"o":"m 872 243 q 733 49 843 121 q 465 -22 623 -22 q 152 91 268 -22 q 37 399 37 205 q 154 695 37 580 q 458 810 272 810 q 771 685 657 810 q 885 339 885 560 l 885 321 l 322 321 q 372 219 332 255 q 473 183 412 183 q 540 198 512 183 q 581 243 568 214 l 872 243 m 328 486 l 600 486 q 553 574 589 543 q 461 605 517 605 q 376 573 411 605 q 328 486 342 542 m 255 885 l 389 1078 l 550 1078 l 685 885 l 588 885 l 470 986 l 351 885 l 255 885 "},"„":{"x_min":109,"x_max":753,"ha":860,"o":"m 486 0 l 486 267 l 753 267 l 753 51 q 681 -166 753 -85 q 488 -248 609 -248 l 486 -248 l 486 -130 q 571 -88 542 -120 q 600 -4 600 -56 l 600 0 l 486 0 m 109 0 l 109 267 l 376 267 l 376 51 q 304 -166 376 -85 q 111 -248 232 -248 l 109 -248 l 109 -130 q 194 -88 165 -120 q 223 -4 223 -56 l 223 0 l 109 0 "},"Â":{"x_min":-54,"x_max":1034,"ha":993,"o":"m 413 379 l 607 379 l 548 614 q 530 718 537 658 q 519 854 523 778 l 510 854 q 500 731 508 791 q 476 613 492 671 l 413 379 m -54 0 l 347 1086 l 696 1086 l 1034 0 l 700 0 l 661 161 l 354 161 l 308 0 l -54 0 m 306 1174 l 440 1367 l 601 1367 l 736 1174 l 639 1174 l 521 1275 l 402 1174 l 306 1174 "},"Í":{"x_min":104,"x_max":493,"ha":536,"o":"m 104 0 l 104 1086 l 430 1086 l 430 0 l 104 0 m 158 1174 l 292 1367 l 493 1367 l 255 1174 l 158 1174 "},"´":{"x_min":237,"x_max":572,"ha":694,"o":"m 237 885 l 371 1078 l 572 1078 l 334 885 l 237 885 "},"Ú":{"x_min":93,"x_max":1044,"ha":1137,"o":"m 93 1086 l 411 1086 l 411 420 q 451 281 411 329 q 569 234 492 234 q 685 281 645 234 q 726 420 726 329 l 726 1086 l 1044 1086 l 1044 449 q 927 91 1044 207 q 566 -24 810 -24 q 209 92 325 -24 q 93 449 93 208 l 93 1086 m 459 1174 l 593 1367 l 794 1367 l 556 1174 l 459 1174 "},"Ý":{"x_min":-72,"x_max":987,"ha":911,"o":"m -72 1086 l 287 1086 l 421 763 q 449 684 442 713 q 458 629 457 655 l 467 629 q 499 754 467 675 q 502 761 501 759 l 635 1086 l 987 1086 l 625 389 l 625 0 l 297 0 l 297 389 l -72 1086 m 346 1174 l 480 1367 l 681 1367 l 443 1174 l 346 1174 "},"Ω":{"x_min":24,"x_max":1134,"ha":1157,"o":"m 1134 237 l 1134 0 l 685 0 l 685 272 q 753 392 730 327 q 777 530 777 457 q 722 708 777 642 q 578 775 668 775 q 434 708 488 775 q 381 530 381 642 q 404 392 381 457 q 473 272 427 327 l 473 0 l 24 0 l 24 237 l 275 237 q 129 379 178 292 q 81 583 81 465 q 217 902 81 780 q 578 1025 354 1025 q 939 902 802 1025 q 1077 583 1077 779 q 1028 379 1077 465 q 882 237 979 292 l 1134 237 "},"Ö":{"x_min":52,"x_max":1115,"ha":1164,"o":"m 381 540 q 435 315 381 395 q 589 236 490 236 q 731 320 677 236 q 786 546 786 404 q 730 770 786 690 q 577 850 675 850 q 435 765 489 850 q 381 540 381 681 m 52 546 q 88 774 52 672 q 200 958 125 875 q 365 1073 270 1034 q 576 1112 460 1112 q 784 1074 688 1112 q 954 962 880 1036 q 1074 775 1034 881 q 1115 539 1115 668 q 1078 313 1115 415 q 966 131 1041 211 q 800 13 895 53 q 589 -26 705 -26 q 382 11 477 -26 q 214 123 287 49 q 92 310 133 205 q 52 546 52 415 m 620 1182 l 620 1360 l 785 1360 l 785 1182 l 620 1182 m 380 1182 l 380 1360 l 545 1360 l 545 1182 l 380 1182 "},"z":{"x_min":56,"x_max":763,"ha":815,"o":"m 56 0 l 56 210 l 374 562 l 65 562 l 65 787 l 753 787 l 753 595 l 416 228 l 763 228 l 763 0 l 56 0 "},"™":{"x_min":111,"x_max":1014,"ha":1157,"o":"m 707 996 l 774 815 l 840 996 l 1014 996 l 1014 617 l 891 617 l 891 866 l 798 617 l 751 617 l 658 866 l 658 617 l 534 617 l 534 996 l 707 996 m 468 996 l 468 894 l 358 894 l 358 617 l 221 617 l 221 894 l 111 894 l 111 996 l 468 996 "},"ã":{"x_min":39,"x_max":895.234375,"ha":932,"o":"m 73 513 q 175 736 79 662 q 460 810 271 810 q 606 798 542 810 q 714 763 670 786 q 829 662 796 723 q 862 483 862 602 l 862 70 q 870 41 862 54 q 895 21 878 29 l 895 0 l 588 0 l 578 87 q 473 3 532 29 q 321 -22 414 -22 q 115 42 191 -22 q 39 215 39 106 q 108 381 39 323 q 344 468 177 439 q 407 478 367 472 q 563 550 563 502 q 538 597 563 581 q 467 614 514 614 q 386 589 413 614 q 352 513 358 565 l 73 513 m 574 358 q 472 316 544 333 q 463 314 466 314 q 351 276 376 293 q 327 232 327 259 q 355 185 327 204 q 428 167 383 167 q 537 207 499 167 q 575 325 575 248 q 575 345 575 338 q 574 358 575 352 m 335 892 l 267 892 q 317 1011 282 972 q 406 1051 351 1051 q 428 1049 416 1051 q 453 1044 439 1047 l 541 1022 q 558 1019 549 1020 q 575 1018 566 1018 q 614 1031 598 1018 q 636 1068 629 1044 l 704 1068 q 652 949 690 991 q 559 908 614 908 q 538 909 548 908 q 518 914 528 911 l 425 938 q 415 941 421 940 q 397 942 410 942 q 356 929 372 942 q 335 892 341 917 "},"æ":{"x_min":39,"x_max":1403,"ha":1439,"o":"m 849 486 l 1120 486 q 1073 574 1109 543 q 981 605 1038 605 q 897 573 931 605 q 849 486 862 542 m 744 747 q 851 794 793 778 q 975 810 909 810 q 1290 685 1177 810 q 1403 340 1403 561 l 1403 321 l 841 321 q 891 219 851 255 q 992 183 931 183 q 1059 198 1031 183 q 1100 243 1087 214 l 1390 243 q 1251 48 1360 118 q 975 -22 1141 -22 q 797 10 877 -22 q 660 105 718 42 q 489 7 569 37 q 321 -22 410 -22 q 115 42 191 -22 q 39 215 39 106 q 108 381 39 323 q 344 467 177 439 q 407 477 367 471 q 563 550 563 502 q 538 597 563 581 q 467 614 514 614 q 386 589 413 614 q 352 513 358 565 l 73 513 q 174 735 79 661 q 455 810 270 810 q 616 794 544 810 q 744 747 688 778 m 574 358 q 472 316 544 333 q 463 314 466 314 q 351 276 376 293 q 327 231 327 259 q 355 185 327 204 q 428 166 383 166 q 538 207 500 166 q 576 324 576 248 q 575 345 576 338 q 574 358 575 352 "},"É":{"x_min":94,"x_max":990,"ha":1044,"o":"m 94 0 l 94 1086 l 980 1086 l 980 823 l 409 823 l 409 681 l 903 681 l 903 440 l 409 440 l 409 273 l 990 273 l 990 0 l 94 0 m 447 1174 l 581 1367 l 782 1367 l 544 1174 l 447 1174 "},"~":{"x_min":121,"x_max":1038,"ha":1157,"o":"m 1038 367 q 907 299 968 320 q 786 278 846 278 q 710 285 749 278 q 605 316 671 293 q 474 353 521 344 q 380 363 426 363 q 261 337 323 363 q 121 255 199 311 l 121 459 q 267 533 201 510 q 397 556 333 556 q 481 547 437 556 q 586 520 525 539 q 629 505 601 515 q 789 469 732 469 q 907 493 847 469 q 1038 570 968 518 l 1038 367 "},"³":{"x_min":43,"x_max":624,"ha":665,"o":"m 57 843 q 134 1011 60 951 q 341 1071 208 1071 q 532 1021 461 1071 q 603 890 603 972 q 580 814 603 843 q 508 769 557 785 q 595 715 566 751 q 624 625 624 680 q 547 469 624 526 q 339 412 470 412 q 119 476 195 412 q 43 662 43 540 l 43 669 l 238 669 l 238 658 q 263 580 238 606 q 339 554 288 554 q 401 574 377 554 q 425 629 425 595 q 398 680 425 663 q 319 697 372 697 q 301 696 313 697 q 283 695 289 695 l 283 815 l 292 815 q 392 828 365 815 q 419 874 419 841 q 396 917 419 901 q 334 933 373 933 q 268 909 292 933 q 241 842 244 885 l 57 843 "},"¡":{"x_min":100,"x_max":403,"ha":504,"o":"m 100 316 l 169 697 l 333 697 l 403 316 l 403 0 l 100 0 l 100 316 m 100 1086 l 403 1086 l 403 784 l 100 784 l 100 1086 "},"[":{"x_min":74,"x_max":522,"ha":562,"o":"m 74 -263 l 74 1086 l 522 1086 l 522 868 l 372 868 l 372 -45 l 522 -45 l 522 -263 l 74 -263 "},"%":{"x_min":8,"x_max":1454,"ha":1458,"o":"m 1009 301 q 1044 206 1009 245 q 1130 167 1079 167 q 1215 206 1179 167 q 1251 301 1251 246 q 1216 396 1251 358 q 1130 435 1181 435 q 1043 396 1078 435 q 1009 301 1009 358 m 806 302 q 899 529 806 437 q 1129 622 993 622 q 1254 597 1193 622 q 1359 527 1315 572 q 1429 424 1405 483 q 1454 302 1454 366 q 1429 179 1454 238 q 1358 74 1404 120 q 1252 4 1312 29 q 1129 -20 1192 -20 q 899 73 992 -20 q 806 302 806 166 m 211 755 q 246 661 211 699 q 332 623 281 623 q 417 662 381 623 q 453 755 453 701 q 417 851 453 812 q 332 891 382 891 q 246 851 281 891 q 211 755 211 812 m 8 757 q 102 985 8 892 q 333 1078 196 1078 q 455 1052 395 1078 q 561 982 515 1027 q 631 879 607 937 q 656 757 656 821 q 630 634 656 693 q 559 528 605 575 q 455 460 514 484 q 333 436 395 436 q 101 528 195 436 q 8 757 8 621 m 359 -20 l 946 1078 l 1102 1078 l 515 -20 l 359 -20 "},"P":{"x_min":94,"x_max":995,"ha":1046,"o":"m 411 843 l 411 595 l 545 595 q 641 626 608 595 q 674 716 674 657 q 640 810 674 778 q 541 843 606 843 l 411 843 m 94 0 l 94 1093 l 552 1093 q 880 992 766 1093 q 995 702 995 891 q 892 443 995 544 q 628 342 790 342 l 416 342 l 416 0 l 94 0 "},"∏":{"x_min":94,"x_max":1043,"ha":1145,"o":"m 94 999 l 1043 999 l 1043 -266 l 722 -266 l 722 733 l 415 733 l 415 -266 l 94 -266 l 94 999 "},"_":{"x_min":0,"x_max":694,"ha":694,"o":"m 694 -137 l 694 -328 l 0 -328 l 0 -137 l 694 -137 "},"ñ":{"x_min":78,"x_max":884,"ha":954,"o":"m 78 0 l 78 789 l 358 789 l 358 665 q 473 772 409 737 q 618 807 538 807 q 813 725 742 807 q 884 499 884 643 l 884 0 l 588 0 l 588 451 q 561 532 588 504 q 485 561 534 561 q 405 530 436 561 q 374 451 374 499 l 374 0 l 78 0 m 300 892 l 232 892 q 282 1011 247 972 q 371 1051 316 1051 q 393 1049 381 1051 q 418 1044 404 1047 l 506 1022 q 523 1019 514 1020 q 540 1018 531 1018 q 579 1031 563 1018 q 601 1068 594 1044 l 669 1068 q 617 949 655 991 q 524 908 579 908 q 503 909 513 908 q 483 914 493 911 l 390 938 q 380 941 386 940 q 362 942 375 942 q 321 929 337 942 q 300 892 306 917 "},"‚":{"x_min":109,"x_max":376,"ha":485,"o":"m 109 0 l 109 267 l 376 267 l 376 51 q 304 -166 376 -85 q 111 -248 232 -248 l 109 -248 l 109 -130 q 194 -88 165 -120 q 223 -4 223 -56 l 223 0 l 109 0 "},"Æ":{"x_min":-52,"x_max":1383,"ha":1415,"o":"m 384 374 l 657 374 l 657 834 l 565 834 l 384 374 m 1372 1086 l 1372 823 l 946 823 l 946 681 l 1296 681 l 1296 440 l 946 440 l 946 273 l 1383 273 l 1383 0 l 657 0 l 657 149 l 324 149 l 266 0 l -52 0 l 372 1086 l 1372 1086 "},"₣":{"x_min":94,"x_max":1572,"ha":1592,"o":"m 94 0 l 94 1086 l 932 1086 l 932 816 l 416 816 l 416 652 l 852 652 l 852 394 l 416 394 l 416 0 l 94 0 m 1038 0 l 1038 787 l 1313 787 l 1313 655 q 1401 766 1336 728 q 1572 807 1466 804 l 1572 536 q 1542 540 1557 539 q 1510 542 1527 542 q 1381 495 1427 542 q 1336 364 1336 449 l 1336 0 l 1038 0 "},"ğ":{"x_min":40,"x_max":873,"ha":954,"o":"m 339 429 q 369 308 339 347 q 464 269 400 269 q 559 307 528 269 q 589 429 589 346 q 558 550 589 511 q 464 590 528 590 q 370 550 401 590 q 339 429 339 511 m 581 134 q 483 69 534 89 q 366 49 432 49 q 128 151 216 49 q 40 429 40 254 q 128 707 40 604 q 366 810 216 810 q 494 785 440 810 q 589 705 547 760 l 589 787 l 873 787 l 873 109 q 768 -168 873 -75 q 455 -261 664 -261 q 186 -198 281 -261 q 78 -10 92 -135 l 364 -10 q 391 -53 368 -38 q 453 -68 414 -68 q 550 -24 518 -68 q 582 107 582 18 q 581 120 582 111 q 581 134 581 129 m 265 1078 l 355 1078 q 391 1015 361 1035 q 478 996 421 996 q 566 1015 536 996 q 602 1078 595 1035 l 692 1078 q 630 931 681 978 q 478 885 578 885 q 327 931 379 885 q 265 1078 275 978 "},"ª":{"x_min":29,"x_max":670.09375,"ha":699,"o":"m 54 894 q 131 1051 59 999 q 344 1103 203 1103 q 452 1094 404 1103 q 535 1071 500 1086 q 620 999 596 1042 q 645 874 645 957 l 645 586 q 651 565 645 574 q 670 551 658 555 l 670 537 l 439 537 l 432 597 q 354 538 398 556 q 239 521 310 521 q 85 565 141 521 q 29 687 29 610 q 80 802 29 762 q 258 863 132 843 q 304 870 274 866 q 422 920 422 888 q 403 953 422 942 q 349 965 384 965 q 288 947 309 965 q 264 894 268 930 l 54 894 m 430 787 q 352 756 407 768 q 346 755 348 755 q 262 730 281 741 q 244 698 244 718 q 265 665 244 678 q 320 653 286 653 q 402 681 373 653 q 431 763 431 709 q 431 777 431 772 q 430 787 430 782 "},"Œ":{"x_min":52,"x_max":1680,"ha":1744,"o":"m 816 0 l 816 77 q 700 0 768 26 q 544 -26 631 -26 q 379 1 458 -26 q 243 79 301 29 q 98 278 144 166 q 52 543 52 390 q 98 808 52 696 q 243 1006 144 920 q 379 1084 301 1057 q 544 1112 458 1112 q 700 1085 631 1112 q 816 1008 768 1059 l 816 1086 l 1669 1086 l 1669 823 l 1100 823 l 1100 681 l 1592 681 l 1592 440 l 1100 440 l 1100 273 l 1680 273 l 1680 0 l 816 0 m 381 540 q 435 316 381 397 q 586 236 490 236 q 735 320 680 236 q 791 551 791 404 q 735 771 791 692 q 580 850 679 850 q 436 765 491 850 q 381 540 381 681 "},"T":{"x_min":40,"x_max":1031,"ha":1071,"o":"m 40 816 l 40 1086 l 1031 1086 l 1031 816 l 696 816 l 696 0 l 375 0 l 375 816 l 40 816 "},"š":{"x_min":35,"x_max":813,"ha":848,"o":"m 35 268 l 312 268 q 343 188 316 214 q 425 163 371 163 q 494 180 468 163 q 521 225 521 197 q 391 291 521 266 q 351 300 366 297 q 118 394 188 336 q 49 550 49 451 q 144 742 49 674 q 413 810 239 810 q 691 744 596 810 q 789 553 786 679 l 525 553 q 494 611 519 592 q 421 630 469 630 q 360 617 383 630 q 337 583 337 604 q 357 554 337 566 q 421 533 377 542 q 506 517 452 527 q 676 472 642 491 q 781 379 750 431 q 813 245 813 328 q 714 47 813 117 q 432 -22 615 -22 q 135 50 234 -22 q 35 268 36 122 m 210 1078 l 306 1078 l 425 976 l 543 1078 l 640 1078 l 505 885 l 344 885 l 210 1078 "},"Þ":{"x_min":94,"x_max":995,"ha":1046,"o":"m 541 694 l 416 694 l 416 445 l 545 445 q 641 476 608 445 q 674 567 674 507 q 640 661 674 629 q 541 694 606 694 m 94 1086 l 416 1086 l 416 944 l 552 944 q 880 843 766 944 q 995 553 995 742 q 892 293 995 394 q 628 193 790 193 l 416 193 l 416 0 l 94 0 l 94 1086 "},"j":{"x_min":0,"x_max":386,"ha":463,"o":"m 90 861 l 90 1086 l 386 1086 l 386 861 l 90 861 m 0 -251 l 0 -26 q 4 -26 1 -26 q 30 -29 22 -29 q 75 -15 60 -29 q 90 27 90 -1 l 90 787 l 386 787 l 386 -13 q 330 -202 386 -145 q 147 -260 274 -260 q 80 -257 118 -260 q 0 -251 42 -255 "},"1":{"x_min":192,"x_max":732,"ha":1007,"o":"m 428 0 l 428 614 l 192 614 l 192 834 q 397 888 330 836 q 479 1059 463 940 l 732 1059 l 732 0 l 428 0 "},"›":{"x_min":37,"x_max":301,"ha":345,"o":"m 301 260 l 37 50 l 37 311 l 169 399 l 37 488 l 37 751 l 301 537 l 301 260 "},"<":{"x_min":179,"x_max":978,"ha":1157,"o":"m 978 635 l 434 413 l 978 191 l 978 -11 l 179 319 l 179 509 l 978 840 l 978 635 "},"t":{"x_min":28,"x_max":544,"ha":596,"o":"m 28 594 l 28 787 l 125 787 l 125 1025 l 423 1025 l 423 787 l 544 787 l 544 594 l 423 594 l 423 264 q 438 221 423 234 q 490 208 453 208 q 514 209 501 208 q 544 212 527 210 l 544 0 q 430 -18 476 -12 q 354 -24 384 -24 q 180 35 235 -24 q 125 223 125 94 l 125 594 l 28 594 "},"¬":{"x_min":172,"x_max":984,"ha":1157,"o":"m 984 589 l 984 249 l 800 249 l 800 409 l 172 409 l 172 589 l 984 589 "},"ù":{"x_min":71,"x_max":877,"ha":954,"o":"m 877 787 l 877 0 l 596 0 l 596 121 q 481 15 545 50 q 336 -20 416 -20 q 141 61 212 -20 q 71 287 71 143 l 71 787 l 367 787 l 367 335 q 393 254 367 283 q 469 226 420 226 q 549 256 518 226 q 581 335 581 287 l 581 787 l 877 787 m 588 885 l 490 885 l 253 1076 l 453 1076 l 588 885 "},"ï":{"x_min":24,"x_max":429,"ha":457,"o":"m 81 0 l 81 787 l 377 787 l 377 0 l 81 0 m 264 893 l 264 1071 l 429 1071 l 429 893 l 264 893 m 24 893 l 24 1071 l 189 1071 l 189 893 l 24 893 "},"Ò":{"x_min":52,"x_max":1115,"ha":1164,"o":"m 381 540 q 435 315 381 395 q 589 236 490 236 q 731 320 677 236 q 786 546 786 404 q 730 770 786 690 q 577 850 675 850 q 435 765 489 850 q 381 540 381 681 m 52 546 q 88 774 52 672 q 200 958 125 875 q 365 1073 270 1034 q 576 1112 460 1112 q 784 1074 688 1112 q 954 962 880 1036 q 1074 775 1034 881 q 1115 539 1115 668 q 1078 313 1115 415 q 966 131 1041 211 q 800 13 895 53 q 589 -26 705 -26 q 382 11 477 -26 q 214 123 287 49 q 92 310 133 205 q 52 546 52 415 m 692 1174 l 594 1174 l 357 1365 l 557 1365 l 692 1174 "},"&":{"x_min":45,"x_max":1132,"ha":1099,"o":"m 508 725 q 579 773 555 746 q 603 834 603 801 q 581 889 603 868 q 526 911 560 911 q 467 891 490 911 q 444 841 444 872 q 451 807 444 825 q 473 771 459 788 l 508 725 m 439 449 q 363 385 388 419 q 338 314 338 352 q 366 243 338 272 q 437 215 395 215 q 497 229 465 215 q 571 273 530 244 l 439 449 m 727 86 q 585 1 658 28 q 426 -26 512 -26 q 148 66 251 -26 q 45 314 45 159 q 103 508 45 428 q 279 637 161 588 q 212 745 231 700 q 194 836 194 790 q 287 1033 194 955 q 525 1112 380 1112 q 755 1033 668 1112 q 843 829 843 955 q 799 684 843 747 q 657 558 756 621 l 754 445 q 793 489 775 466 q 827 537 811 512 l 1119 537 q 1025 396 1077 463 q 910 266 973 329 l 1132 0 l 792 0 l 727 86 "},"":{"x_min":-16,"x_max":1008,"ha":1007,"o":"m -16 415 l 23 504 l 104 504 l 104 527 q 104 555 104 537 q 105 583 105 574 l -11 583 l 27 672 l 116 672 q 269 970 149 864 q 574 1076 390 1076 q 863 985 754 1076 q 1001 724 972 895 l 713 724 q 665 800 700 773 q 577 828 629 828 q 480 788 519 828 q 423 672 441 749 l 762 672 l 725 583 l 413 583 q 411 562 411 573 q 411 528 411 551 l 411 504 l 692 504 l 654 415 l 417 415 q 471 277 431 323 q 575 232 510 232 q 667 267 629 232 q 720 367 705 303 l 1008 367 q 870 81 984 183 q 577 -20 757 -20 q 254 90 373 -20 q 110 415 135 201 l -16 415 "},"˝":{"x_min":184,"x_max":676,"ha":694,"o":"m 388 885 l 498 1078 l 676 1078 l 463 885 l 388 885 m 184 885 l 271 1078 l 441 1078 l 249 885 l 184 885 "},"I":{"x_min":104,"x_max":430,"ha":536,"o":"m 104 0 l 104 1086 l 430 1086 l 430 0 l 104 0 "},"G":{"x_min":52,"x_max":1102,"ha":1175,"o":"m 865 116 q 735 9 810 45 q 565 -26 660 -26 q 356 16 451 -26 q 193 142 262 59 q 87 329 123 225 q 52 555 52 434 q 96 799 52 691 q 228 987 140 907 q 386 1081 298 1051 q 586 1112 474 1112 q 922 1005 793 1112 q 1073 711 1051 898 l 750 711 q 702 820 743 781 q 593 860 660 860 q 434 781 487 860 q 381 546 381 703 q 438 314 381 396 q 599 232 495 232 q 727 272 674 232 q 785 374 779 312 l 656 374 l 656 599 l 1102 599 l 1102 0 l 875 0 l 865 116 "},"`":{"x_min":122,"x_max":457,"ha":694,"o":"m 457 885 l 359 885 l 122 1076 l 322 1076 l 457 885 "},"·":{"x_min":81,"x_max":423,"ha":503,"o":"m 81 546 q 130 666 81 616 q 252 717 180 717 q 372 666 322 717 q 423 546 423 616 q 372 424 423 474 q 252 375 322 375 q 130 424 180 375 q 81 546 81 474 "},"¿":{"x_min":11,"x_max":818,"ha":819,"o":"m 586 1089 l 586 786 l 284 786 l 284 1089 l 586 1089 m 573 703 l 573 682 q 549 523 573 582 q 470 425 525 464 q 403 383 447 408 q 316 292 316 332 q 344 233 316 257 q 412 209 372 209 q 494 244 464 209 q 525 342 525 280 l 525 357 l 818 357 q 706 72 811 171 q 405 -26 600 -26 q 120 61 230 -26 q 11 286 11 149 q 52 427 11 369 q 201 549 93 485 q 222 561 209 553 q 296 652 296 602 l 296 703 l 573 703 "},"ý":{"x_min":-12,"x_max":838,"ha":823,"o":"m -12 787 l 308 787 l 383 425 q 388 398 385 415 q 411 250 409 300 l 417 250 q 429 348 423 307 q 443 423 435 389 l 523 787 l 838 787 l 619 57 q 488 -191 565 -123 q 263 -260 411 -260 q 244 -259 255 -260 q 214 -257 234 -258 l 76 -247 l 76 -6 q 129 -13 107 -11 q 166 -16 151 -16 q 215 -3 201 -16 q 229 38 229 8 q 227 59 229 48 q 222 78 225 70 l -12 787 m 302 885 l 436 1078 l 637 1078 l 399 885 l 302 885 "},"º":{"x_min":31,"x_max":662,"ha":692,"o":"m 345 674 q 411 708 389 674 q 434 811 434 743 q 411 914 434 879 q 345 950 389 950 q 280 914 302 950 q 258 811 258 879 q 280 708 258 743 q 345 674 302 674 m 346 521 q 115 598 199 521 q 31 811 31 675 q 115 1024 31 946 q 346 1103 199 1103 q 577 1024 493 1103 q 662 811 662 946 q 577 598 662 675 q 346 521 493 521 "},"∞":{"x_min":123,"x_max":1034,"ha":1157,"o":"m 660 380 q 725 321 687 341 q 809 302 762 302 q 902 331 866 302 q 938 404 938 360 q 905 478 938 448 q 826 509 872 509 q 742 479 781 509 q 660 380 704 449 m 495 442 q 430 501 467 481 q 346 521 394 521 q 254 491 289 521 q 219 416 219 462 q 251 343 219 373 q 330 314 283 314 q 414 343 376 314 q 495 442 452 373 m 579 536 q 680 665 626 623 q 799 708 735 708 q 965 622 896 708 q 1034 410 1034 537 q 972 197 1034 279 q 814 115 911 115 q 703 150 754 115 q 575 287 651 186 q 476 157 530 199 q 357 115 422 115 q 191 200 259 115 q 123 412 123 285 q 183 626 123 544 q 341 708 244 708 q 450 672 398 708 q 579 536 501 636 "},";":{"x_min":100,"x_max":403,"ha":503,"o":"m 100 486 l 100 787 l 403 787 l 403 486 l 100 486 m 100 0 l 100 315 l 403 315 l 403 13 q 322 -202 403 -123 q 100 -285 241 -281 l 100 -126 q 189 -90 158 -122 q 223 0 221 -59 l 100 0 "},"6":{"x_min":50,"x_max":970,"ha":1007,"o":"m 369 364 q 411 257 369 299 q 517 215 453 215 q 625 257 583 215 q 668 364 668 299 q 625 471 668 429 q 517 514 583 514 q 410 471 452 514 q 369 364 369 429 m 366 664 q 462 718 410 700 q 578 736 514 736 q 859 631 749 736 q 970 363 970 527 q 850 86 970 190 q 530 -18 730 -18 q 174 125 299 -18 q 50 534 50 269 q 177 932 50 787 q 524 1078 305 1078 q 808 996 695 1078 q 942 778 921 915 l 650 778 q 600 835 633 815 q 520 856 567 856 q 412 806 452 856 q 366 664 372 756 "},"n":{"x_min":78,"x_max":884,"ha":954,"o":"m 78 0 l 78 789 l 358 789 l 358 665 q 473 772 409 737 q 618 807 538 807 q 813 725 742 807 q 884 499 884 643 l 884 0 l 588 0 l 588 451 q 561 532 588 504 q 485 561 534 561 q 405 530 436 561 q 374 451 374 499 l 374 0 l 78 0 "},"¤":{"x_min":-16,"x_max":1008,"ha":1007,"o":"m -16 415 l 23 504 l 104 504 l 104 527 q 104 555 104 537 q 105 583 105 574 l -11 583 l 27 672 l 116 672 q 269 970 149 864 q 574 1076 390 1076 q 863 985 754 1076 q 1001 724 972 895 l 713 724 q 665 800 700 773 q 577 828 629 828 q 480 788 519 828 q 423 672 441 749 l 762 672 l 725 583 l 413 583 q 411 562 411 573 q 411 528 411 551 l 411 504 l 692 504 l 654 415 l 417 415 q 471 277 431 323 q 575 232 510 232 q 667 267 629 232 q 720 367 705 303 l 1008 367 q 870 81 984 183 q 577 -20 757 -20 q 254 90 373 -20 q 110 415 135 201 l -16 415 "},"∂":{"x_min":25,"x_max":745,"ha":772,"o":"m 522 485 q 546 627 539 571 q 553 729 553 684 q 535 837 553 800 q 482 874 517 874 q 443 859 460 874 q 408 811 426 845 q 346 730 378 757 q 277 704 313 704 q 207 729 235 704 q 180 794 180 755 q 249 894 180 853 q 419 936 319 936 q 658 825 571 936 q 745 520 745 715 q 631 134 745 284 q 337 -16 517 -16 q 108 62 191 -16 q 25 278 25 140 q 110 509 25 416 q 319 602 196 602 q 436 572 384 602 q 522 485 487 542 m 471 375 q 447 492 471 452 q 380 532 424 532 q 278 436 319 532 q 237 196 237 341 q 260 79 237 118 q 328 40 283 40 q 430 135 390 40 q 471 375 471 230 "},"p":{"x_min":78,"x_max":908,"ha":949,"o":"m 610 392 q 580 538 610 491 q 489 586 551 586 q 397 538 426 586 q 367 392 367 490 q 397 246 367 293 q 489 199 426 199 q 580 246 551 199 q 610 392 610 293 m 363 699 q 458 781 405 755 q 582 807 511 807 q 819 695 731 807 q 908 393 908 583 q 819 90 908 202 q 582 -21 731 -21 q 461 2 512 -21 q 374 72 409 25 l 374 -248 l 78 -248 l 78 787 l 363 787 l 363 699 "},"‡":{"x_min":29,"x_max":730,"ha":758,"o":"m 256 -179 l 256 74 l 29 74 l 29 279 l 256 279 l 256 630 l 29 630 l 29 830 l 256 830 l 256 1086 l 503 1086 l 503 830 l 730 830 l 730 630 l 503 630 l 503 279 l 730 279 l 730 74 l 503 74 l 503 -179 l 256 -179 "},"√":{"x_min":57,"x_max":949,"ha":946,"o":"m 949 1178 l 949 1061 l 890 1061 l 491 -28 l 394 -28 l 190 532 l 84 492 l 57 597 l 324 691 l 466 284 l 794 1178 l 949 1178 "},"S":{"x_min":58,"x_max":1012,"ha":1068,"o":"m 58 373 l 390 373 l 390 369 q 427 254 390 292 q 540 216 464 216 q 650 239 611 216 q 689 307 689 263 q 476 423 689 368 q 423 437 442 432 q 154 568 240 486 q 69 776 69 649 q 190 1024 69 934 q 526 1114 311 1114 q 853 1021 736 1114 q 975 760 970 928 l 660 760 q 625 852 658 823 q 518 881 591 881 q 424 858 458 881 q 390 799 390 836 q 618 683 390 741 l 627 681 q 787 635 738 652 q 865 600 837 618 q 977 491 943 550 q 1012 347 1012 432 q 889 73 1012 171 q 546 -25 767 -25 q 186 73 306 -25 q 58 373 65 172 "},"/":{"x_min":-52,"x_max":480,"ha":418,"o":"m 91 -129 l -52 -129 l 337 1112 l 480 1112 l 91 -129 "},"y":{"x_min":-12,"x_max":838,"ha":823,"o":"m -12 787 l 308 787 l 383 425 q 388 398 385 415 q 411 250 409 300 l 417 250 q 429 348 423 307 q 443 423 435 389 l 523 787 l 838 787 l 619 57 q 488 -191 565 -123 q 263 -260 411 -260 q 244 -259 255 -260 q 214 -257 234 -258 l 76 -247 l 76 -6 q 129 -13 107 -11 q 166 -16 151 -16 q 215 -3 201 -16 q 229 38 229 8 q 227 59 229 48 q 222 78 225 70 l -12 787 "},"≈":{"x_min":121,"x_max":1038,"ha":1157,"o":"m 1038 208 q 905 140 966 162 q 785 119 844 119 q 595 162 726 119 q 380 206 464 206 q 263 180 325 206 q 121 98 202 155 l 121 302 q 265 375 199 352 q 399 398 331 398 q 608 354 479 398 q 790 311 736 311 q 905 334 846 311 q 1038 411 963 357 l 1038 208 m 1038 524 q 905 455 966 476 q 786 434 845 434 q 595 478 726 434 q 380 522 464 522 q 263 497 323 522 q 121 415 203 472 l 121 618 q 266 691 199 668 q 399 714 332 714 q 608 670 479 714 q 790 627 736 627 q 906 650 848 627 q 1038 728 965 674 l 1038 524 "},"g":{"x_min":40,"x_max":873,"ha":954,"o":"m 339 429 q 369 308 339 347 q 464 269 400 269 q 559 307 528 269 q 589 429 589 346 q 558 550 589 511 q 464 590 528 590 q 370 550 401 590 q 339 429 339 511 m 581 134 q 483 69 534 89 q 366 49 432 49 q 128 151 216 49 q 40 429 40 254 q 128 707 40 604 q 366 810 216 810 q 494 785 440 810 q 589 705 547 760 l 589 787 l 873 787 l 873 109 q 768 -168 873 -75 q 455 -261 664 -261 q 186 -198 281 -261 q 78 -10 92 -135 l 364 -10 q 391 -53 368 -38 q 453 -68 414 -68 q 550 -24 518 -68 q 582 107 582 18 q 581 120 582 111 q 581 134 581 129 "},"²":{"x_min":29,"x_max":614,"ha":665,"o":"m 29 423 l 33 478 q 70 572 36 530 q 198 675 103 615 q 286 729 230 696 q 414 850 414 803 q 391 902 414 882 q 331 922 369 922 q 260 895 284 922 q 236 815 236 868 q 236 802 236 806 q 237 794 236 797 l 37 793 l 37 808 q 112 1001 37 934 q 327 1069 187 1069 q 534 1011 457 1069 q 611 858 611 954 q 588 770 611 807 q 500 685 565 733 q 431 643 479 670 q 314 577 383 615 q 352 582 333 580 q 388 584 371 584 l 614 584 l 614 423 l 29 423 "},"ë":{"x_min":37,"x_max":885,"ha":920,"o":"m 872 243 q 733 49 843 121 q 465 -22 623 -22 q 152 91 268 -22 q 37 399 37 205 q 154 695 37 580 q 458 810 272 810 q 771 685 657 810 q 885 339 885 560 l 885 321 l 322 321 q 372 219 332 255 q 473 183 412 183 q 540 198 512 183 q 581 243 568 214 l 872 243 m 328 486 l 600 486 q 553 574 589 543 q 461 605 517 605 q 376 573 411 605 q 328 486 342 542 m 508 893 l 508 1071 l 673 1071 l 673 893 l 508 893 m 268 893 l 268 1071 l 433 1071 l 433 893 l 268 893 "},"–":{"x_min":0,"x_max":694,"ha":694,"o":"m 0 302 l 0 494 l 694 494 l 694 302 l 0 302 "},"ƒ":{"x_min":-10,"x_max":963,"ha":1007,"o":"m 671 690 l 895 690 l 895 503 l 641 503 l 590 146 q 475 -167 560 -72 q 230 -262 391 -262 q 130 -254 188 -262 q -10 -231 71 -247 l 30 -19 q 82 -27 56 -24 q 133 -30 107 -30 q 238 3 207 -30 q 288 157 270 37 l 342 506 l 138 506 l 138 693 l 370 693 q 479 985 394 892 q 724 1078 565 1078 q 823 1070 765 1078 q 963 1047 881 1063 l 924 835 q 872 843 898 840 q 821 846 847 846 q 714 811 748 846 q 671 690 681 777 "},"J":{"x_min":26,"x_max":787,"ha":876,"o":"m 26 439 l 309 439 l 309 308 q 329 246 309 269 q 385 224 350 224 q 446 249 424 224 q 469 316 469 274 l 469 1086 l 787 1086 l 787 351 q 689 66 787 159 q 388 -26 591 -26 q 116 66 207 -26 q 26 344 26 159 l 26 439 "},"Ã":{"x_min":-54,"x_max":1034,"ha":993,"o":"m 413 379 l 607 379 l 548 614 q 530 718 537 658 q 519 854 523 778 l 510 854 q 500 731 508 791 q 476 613 492 671 l 413 379 m -54 0 l 347 1086 l 696 1086 l 1034 0 l 700 0 l 661 161 l 354 161 l 308 0 l -54 0 m 371 1181 l 303 1181 q 353 1300 318 1261 q 442 1340 387 1340 q 464 1338 452 1340 q 489 1333 475 1336 l 577 1311 q 594 1308 585 1309 q 611 1307 602 1307 q 650 1320 634 1307 q 672 1357 665 1333 l 740 1357 q 688 1238 726 1280 q 595 1197 650 1197 q 574 1198 584 1197 q 554 1203 564 1200 l 461 1227 q 451 1230 457 1229 q 433 1231 446 1231 q 392 1218 408 1231 q 371 1181 377 1206 "},"©":{"x_min":69,"x_max":1088,"ha":1157,"o":"m 668 597 q 642 664 666 639 q 579 689 618 689 q 502 640 530 689 q 474 504 474 592 q 501 371 474 415 q 585 327 529 327 q 647 351 625 327 q 671 424 668 376 l 839 424 q 765 263 834 323 q 581 204 695 204 q 373 282 449 204 q 298 499 298 361 q 373 718 298 634 q 568 802 448 802 q 757 747 688 802 q 832 597 826 693 l 668 597 m 984 502 q 953 657 984 583 q 866 788 922 731 q 734 877 807 847 q 578 908 661 908 q 422 878 495 908 q 293 791 349 849 q 204 657 235 732 q 173 502 173 583 q 203 348 173 421 q 292 217 234 274 q 423 127 350 158 q 578 97 497 97 q 733 128 659 97 q 867 218 807 159 q 954 346 925 274 q 984 502 984 419 m 577 1012 q 775 974 682 1012 q 940 863 868 936 q 1049 698 1011 792 q 1088 502 1088 605 q 1050 306 1088 397 q 940 145 1012 215 q 771 32 865 72 q 577 -7 677 -7 q 384 31 476 -7 q 219 144 293 70 q 107 308 146 216 q 69 502 69 401 q 107 698 69 604 q 220 866 146 791 q 382 974 290 937 q 577 1012 473 1012 "},"˘":{"x_min":134,"x_max":561,"ha":694,"o":"m 134 1078 l 224 1078 q 260 1015 230 1035 q 347 996 290 996 q 435 1015 405 996 q 471 1078 464 1035 l 561 1078 q 499 931 550 978 q 347 885 447 885 q 196 931 248 885 q 134 1078 144 978 "},"≥":{"x_min":172,"x_max":986,"ha":1157,"o":"m 986 160 l 986 -24 l 172 -24 l 172 160 l 986 160 m 984 616 l 984 455 l 173 204 l 173 394 l 651 536 l 173 677 l 173 869 l 984 616 "},"D":{"x_min":94,"x_max":1058,"ha":1112,"o":"m 412 257 l 513 257 q 673 337 614 257 q 732 555 732 417 q 673 758 732 681 q 520 836 614 836 l 412 836 l 412 257 m 94 0 l 94 1086 l 553 1086 q 732 1068 661 1086 q 856 1010 803 1050 q 1005 817 952 937 q 1058 549 1058 697 q 1010 292 1058 402 q 860 95 963 183 q 725 23 803 46 q 541 0 648 0 l 94 0 "},"ÿ":{"x_min":-12,"x_max":838,"ha":823,"o":"m -12 787 l 308 787 l 383 425 q 388 398 385 415 q 411 250 409 300 l 417 250 q 429 348 423 307 q 443 423 435 389 l 523 787 l 838 787 l 619 57 q 488 -191 565 -123 q 263 -260 411 -260 q 244 -259 255 -260 q 214 -257 234 -258 l 76 -247 l 76 -6 q 129 -13 107 -11 q 166 -16 151 -16 q 215 -3 201 -16 q 229 38 229 8 q 227 59 229 48 q 222 78 225 70 l -12 787 m 450 893 l 450 1071 l 615 1071 l 615 893 l 450 893 m 210 893 l 210 1071 l 375 1071 l 375 893 l 210 893 "},"ł":{"x_min":-37.296875,"x_max":498.640625,"ha":463,"o":"m 81 0 l 81 398 l 18 359 l -37 446 l 81 526 l 81 1086 l 382 1086 l 382 690 l 440 727 l 498 638 l 382 565 l 382 0 l 81 0 "},"Ł":{"x_min":-42.71875,"x_max":844,"ha":882,"o":"m 89 0 l 89 440 l 38 405 l -42 530 l 89 615 l 89 1086 l 411 1086 l 411 789 l 576 898 l 656 775 l 411 615 l 411 277 l 844 277 l 844 0 l 89 0 "},"$":{"x_min":81,"x_max":927,"ha":1007,"o":"m 443 684 l 443 866 q 368 842 394 862 q 343 788 343 822 q 367 730 343 755 q 443 684 392 704 m 551 387 l 551 196 q 645 226 614 202 q 677 290 677 250 q 645 349 677 324 q 551 387 613 374 m 81 349 l 334 349 q 360 240 334 276 q 443 198 386 203 l 443 417 q 176 550 257 473 q 95 745 95 627 q 186 961 95 878 q 438 1055 278 1044 l 438 1180 l 556 1180 l 556 1055 q 811 969 719 1048 q 911 747 902 890 l 663 747 q 635 831 663 801 q 551 869 608 861 l 551 659 q 843 535 760 610 q 927 327 927 460 q 827 94 927 183 q 556 -1 727 5 l 556 -130 l 438 -130 l 438 0 q 171 96 261 9 q 81 343 81 183 l 81 349 "},"w":{"x_min":-21,"x_max":1280,"ha":1258,"o":"m -21 787 l 288 787 l 347 488 l 348 481 q 380 263 374 349 l 389 263 q 402 369 393 315 q 423 487 410 422 l 487 787 l 770 787 l 832 488 q 856 361 849 412 q 868 263 864 311 l 878 263 q 906 465 883 345 q 910 487 909 479 l 964 787 l 1280 787 l 1040 0 l 731 0 l 666 303 l 662 319 q 631 521 635 454 l 622 521 q 609 415 617 469 q 588 300 601 360 l 525 0 l 216 0 l -21 787 "},"\\":{"x_min":-62,"x_max":470,"ha":418,"o":"m 470 -129 l 326 -129 l -62 1112 l 80 1112 l 470 -129 "},"∫":{"x_min":35,"x_max":871,"ha":903,"o":"m 257 -166 q 293 -137 276 -166 q 322 -60 311 -109 q 339 200 335 2 q 346 399 342 326 q 443 903 361 749 q 693 1057 525 1057 q 822 1017 773 1057 q 871 915 871 977 q 839 838 871 868 q 761 809 808 809 q 692 836 715 809 q 669 918 669 864 q 670 925 669 919 q 671 935 671 931 q 665 961 671 953 q 647 970 659 970 q 562 521 577 970 q 560 461 560 482 q 535 133 552 235 q 485 -47 518 31 q 372 -201 441 -149 q 211 -253 303 -253 q 83 -214 131 -253 q 35 -111 35 -175 q 65 -33 35 -62 q 147 -5 95 -5 q 212 -30 189 -5 q 236 -101 236 -56 q 235 -122 236 -110 q 234 -138 234 -134 q 240 -158 234 -151 q 257 -166 246 -166 "},"Ì":{"x_min":43,"x_max":430,"ha":536,"o":"m 104 0 l 104 1086 l 430 1086 l 430 0 l 104 0 m 378 1174 l 280 1174 l 43 1365 l 243 1365 l 378 1174 "},"Ç":{"x_min":52,"x_max":1050,"ha":1104,"o":"m 1043 691 l 729 691 q 682 811 724 767 q 571 856 639 856 q 430 776 480 856 q 380 551 380 696 q 430 315 380 400 q 570 231 480 231 q 688 284 642 231 q 737 427 733 337 l 1050 427 q 911 95 1039 216 q 571 -26 783 -26 q 189 128 326 -26 q 52 558 52 283 q 190 963 52 815 q 568 1112 329 1112 q 901 1003 778 1112 q 1043 691 1023 895 m 413 -275 l 413 -191 q 507 -211 463 -204 q 577 -219 551 -219 q 619 -208 605 -219 q 634 -175 634 -197 q 618 -145 634 -154 q 563 -136 602 -136 q 542 -136 550 -136 q 529 -136 535 -136 l 529 0 l 604 0 l 604 -58 l 614 -58 q 725 -88 687 -58 q 764 -175 764 -118 q 721 -270 764 -236 q 601 -305 678 -305 q 514 -297 562 -305 q 413 -275 467 -290 "},"C":{"x_min":52,"x_max":1050,"ha":1104,"o":"m 1043 691 l 729 691 q 682 811 724 767 q 571 856 639 856 q 430 776 480 856 q 380 551 380 696 q 430 315 380 400 q 570 231 480 231 q 688 284 642 231 q 737 427 733 337 l 1050 427 q 911 95 1039 216 q 571 -26 783 -26 q 189 128 326 -26 q 52 558 52 283 q 190 963 52 815 q 568 1112 329 1112 q 901 1003 778 1112 q 1043 691 1023 895 "},"!":{"x_min":100,"x_max":403,"ha":504,"o":"m 100 769 l 100 1086 l 403 1086 l 403 769 l 333 388 l 169 388 l 100 769 m 100 0 l 100 302 l 403 302 l 403 0 l 100 0 "},"ç":{"x_min":40,"x_max":885,"ha":925,"o":"m 885 328 q 768 68 873 159 q 479 -22 663 -22 q 156 87 273 -22 q 40 388 40 197 q 65 561 40 490 q 147 687 91 633 q 289 779 208 748 q 467 810 370 810 q 758 726 651 810 q 885 488 866 643 l 593 488 q 558 565 588 538 q 479 592 529 592 q 376 542 411 592 q 342 395 342 492 q 376 247 342 298 q 474 196 411 196 q 563 229 531 196 q 599 328 594 262 l 885 328 m 308 -275 l 308 -191 q 402 -211 358 -204 q 472 -219 446 -219 q 514 -208 500 -219 q 529 -175 529 -197 q 513 -145 529 -154 q 458 -136 497 -136 q 437 -136 445 -136 q 424 -136 430 -136 l 424 0 l 499 0 l 499 -58 l 509 -58 q 620 -88 582 -58 q 659 -175 659 -118 q 616 -270 659 -236 q 496 -305 573 -305 q 409 -297 457 -305 q 308 -275 362 -290 "},"È":{"x_min":94,"x_max":990,"ha":1044,"o":"m 94 0 l 94 1086 l 980 1086 l 980 823 l 409 823 l 409 681 l 903 681 l 903 440 l 409 440 l 409 273 l 990 273 l 990 0 l 94 0 m 667 1174 l 569 1174 l 332 1365 l 532 1365 l 667 1174 "},"X":{"x_min":-17,"x_max":1141,"ha":1126,"o":"m -17 0 l 374 573 l 21 1086 l 402 1086 l 526 877 q 552 818 543 848 q 564 752 561 787 l 574 752 q 585 818 576 787 q 610 877 594 848 l 727 1086 l 1099 1086 l 759 573 l 1141 0 l 751 0 l 606 242 q 580 302 589 271 q 568 369 571 333 l 559 369 q 549 306 558 338 q 522 242 539 275 l 387 0 l -17 0 "},"ô":{"x_min":40,"x_max":882,"ha":922,"o":"m 459 196 q 547 246 517 196 q 578 393 578 296 q 547 541 578 490 q 459 592 517 592 q 372 541 402 592 q 343 393 343 491 q 372 245 343 295 q 459 196 402 196 m 461 -22 q 152 88 265 -22 q 40 393 40 199 q 152 698 40 586 q 461 810 265 810 q 769 698 657 810 q 882 393 882 586 q 769 88 882 199 q 461 -22 657 -22 m 246 885 l 380 1078 l 541 1078 l 676 885 l 579 885 l 461 986 l 342 885 l 246 885 "},"đ":{"x_min":40,"x_max":951.703125,"ha":949,"o":"m 585 83 q 490 3 542 28 q 366 -22 439 -22 q 128 90 217 -22 q 40 392 40 202 q 128 694 40 582 q 366 806 216 806 q 486 782 435 806 q 575 711 538 759 l 575 916 l 366 916 l 366 1021 l 575 1021 l 575 1086 l 871 1086 l 871 1021 l 951 1021 l 951 916 l 871 916 l 871 0 l 585 0 l 585 83 m 339 392 q 368 246 339 293 q 459 199 398 199 q 551 246 522 199 q 581 392 581 293 q 551 538 581 491 q 459 586 522 586 q 368 538 398 586 q 339 392 339 491 "},"}":{"x_min":82,"x_max":598,"ha":694,"o":"m 435 786 l 435 612 q 466 491 435 526 q 574 456 498 456 q 585 457 577 456 q 598 458 593 458 l 598 265 q 585 265 593 265 q 574 266 577 266 q 466 231 498 266 q 435 109 435 195 l 435 -64 q 418 -191 435 -153 q 359 -250 401 -229 q 281 -273 329 -266 q 145 -280 234 -280 l 82 -280 l 82 -87 q 97 -87 88 -87 q 111 -88 107 -88 q 190 -68 170 -88 q 211 18 211 -47 l 211 181 q 242 308 211 271 q 358 361 274 345 q 242 413 274 376 q 211 541 211 450 l 211 703 q 190 790 211 769 q 111 810 170 810 q 97 809 107 810 q 82 809 88 809 l 82 1002 l 136 1002 q 278 994 229 1002 q 359 971 327 987 q 418 912 401 950 q 435 786 435 874 "},"â":{"x_min":39,"x_max":895.234375,"ha":932,"o":"m 73 513 q 175 736 79 662 q 460 810 271 810 q 606 798 542 810 q 714 763 670 786 q 829 662 796 723 q 862 483 862 602 l 862 70 q 870 41 862 54 q 895 21 878 29 l 895 0 l 588 0 l 578 87 q 473 3 532 29 q 321 -22 414 -22 q 115 42 191 -22 q 39 215 39 106 q 108 381 39 323 q 344 468 177 439 q 407 478 367 472 q 563 550 563 502 q 538 597 563 581 q 467 614 514 614 q 386 589 413 614 q 352 513 358 565 l 73 513 m 574 358 q 472 316 544 333 q 463 314 466 314 q 351 276 376 293 q 327 232 327 259 q 355 185 327 204 q 428 167 383 167 q 537 207 499 167 q 575 325 575 248 q 575 345 575 338 q 574 358 575 352 m 270 885 l 404 1078 l 565 1078 l 700 885 l 603 885 l 485 986 l 366 885 l 270 885 "},"ø":{"x_min":47,"x_max":890,"ha":933,"o":"m 399 219 q 433 197 416 204 q 467 190 449 190 q 557 243 526 190 q 588 398 588 296 q 585 449 588 425 q 578 496 583 474 l 399 219 m 358 285 l 539 568 q 506 590 523 583 q 471 598 490 598 q 379 544 410 598 q 348 385 348 490 q 350 331 348 355 q 358 285 353 306 m 202 56 q 86 204 125 118 q 47 395 47 290 q 161 698 47 586 q 470 810 275 810 q 571 801 523 810 q 663 774 618 792 l 723 862 l 790 818 l 736 730 q 850 586 811 673 q 890 392 890 499 q 772 89 890 203 q 459 -24 654 -24 q 367 -15 411 -24 q 277 11 322 -6 l 209 -86 l 139 -38 l 202 56 "},"Ä":{"x_min":-54,"x_max":1034,"ha":993,"o":"m 413 379 l 607 379 l 548 614 q 530 718 537 658 q 519 854 523 778 l 510 854 q 500 731 508 791 q 476 613 492 671 l 413 379 m -54 0 l 347 1086 l 696 1086 l 1034 0 l 700 0 l 661 161 l 354 161 l 308 0 l -54 0 m 559 1182 l 559 1360 l 724 1360 l 724 1182 l 559 1182 m 319 1182 l 319 1360 l 484 1360 l 484 1182 l 319 1182 "},"‰":{"x_min":8,"x_max":2155,"ha":2160,"o":"m 1710 301 q 1745 206 1710 245 q 1830 167 1780 167 q 1916 206 1880 167 q 1952 301 1952 245 q 1916 396 1952 358 q 1830 435 1881 435 q 1744 396 1779 435 q 1710 301 1710 358 m 1507 302 q 1600 529 1507 436 q 1830 622 1694 622 q 1954 597 1894 622 q 2059 527 2014 572 q 2130 424 2105 482 q 2155 302 2155 365 q 2130 179 2155 238 q 2059 74 2105 120 q 1953 4 2013 29 q 1830 -20 1894 -20 q 1600 73 1694 -20 q 1507 302 1507 166 m 359 -20 l 946 1078 l 1102 1078 l 515 -20 l 359 -20 m 8 757 q 102 985 8 892 q 333 1078 196 1078 q 455 1052 395 1078 q 561 982 515 1027 q 631 879 607 937 q 656 757 656 821 q 630 634 656 693 q 559 528 605 575 q 455 460 514 484 q 333 436 395 436 q 101 528 195 436 q 8 757 8 621 m 211 755 q 246 661 211 699 q 332 623 281 623 q 417 662 381 623 q 453 755 453 701 q 417 851 453 812 q 332 891 382 891 q 246 851 281 891 q 211 755 211 812 m 806 302 q 899 529 806 437 q 1129 622 993 622 q 1254 597 1193 622 q 1359 527 1315 572 q 1429 424 1405 483 q 1454 302 1454 366 q 1429 179 1454 238 q 1358 74 1404 120 q 1252 4 1312 29 q 1129 -20 1192 -20 q 899 73 992 -20 q 806 302 806 166 m 1009 301 q 1044 206 1009 245 q 1130 167 1079 167 q 1215 206 1179 167 q 1251 301 1251 246 q 1216 396 1251 358 q 1130 435 1181 435 q 1043 396 1078 435 q 1009 301 1009 358 "},"N":{"x_min":94,"x_max":1028,"ha":1121,"o":"m 94 0 l 94 1086 l 419 1086 l 675 602 q 716 515 700 555 q 740 439 732 475 l 748 444 q 728 534 734 484 q 722 674 722 585 l 722 1086 l 1028 1086 l 1028 0 l 705 0 l 442 505 q 406 585 422 544 q 380 669 391 626 l 372 665 q 393 565 386 620 q 400 433 400 509 l 400 0 l 94 0 "},"—":{"x_min":0,"x_max":1389,"ha":1389,"o":"m 0 494 l 1389 494 l 1389 302 l 0 302 l 0 494 "},"2":{"x_min":45,"x_max":930,"ha":1007,"o":"m 45 0 l 50 92 q 105 249 55 179 q 299 421 156 319 q 429 507 347 453 q 628 714 628 634 q 593 799 628 766 q 502 832 558 832 q 394 786 431 832 q 358 654 358 741 q 358 632 358 640 q 359 618 358 624 l 57 618 l 57 643 q 170 964 57 852 q 495 1076 283 1076 q 809 980 693 1076 q 926 724 926 885 q 891 578 926 640 q 756 437 856 516 q 650 364 724 412 q 475 256 577 317 q 539 265 511 262 q 588 269 567 269 l 930 269 l 930 0 l 45 0 "},"ü":{"x_min":71,"x_max":877,"ha":954,"o":"m 877 787 l 877 0 l 596 0 l 596 121 q 481 15 545 50 q 336 -20 416 -20 q 141 61 212 -20 q 71 287 71 143 l 71 787 l 367 787 l 367 335 q 393 254 367 283 q 469 226 420 226 q 549 256 518 226 q 581 335 581 287 l 581 787 l 877 787 m 516 893 l 516 1071 l 681 1071 l 681 893 l 516 893 m 276 893 l 276 1071 l 441 1071 l 441 893 l 276 893 "},"":{"x_min":8.15625,"x_max":898,"ha":978,"o":"m 602 0 l 602 1086 l 898 1086 l 898 0 l 602 0 m 102 0 l 102 594 l 8 594 l 8 787 l 102 787 q 100 800 101 793 q 100 821 100 808 q 173 1021 100 957 q 398 1086 245 1086 l 518 1086 l 518 880 q 506 880 513 880 q 486 881 498 881 q 416 862 438 881 q 395 801 395 843 l 395 787 l 518 787 l 518 594 l 398 594 l 398 0 l 102 0 "},"Ó":{"x_min":52,"x_max":1115,"ha":1164,"o":"m 381 540 q 435 315 381 395 q 589 236 490 236 q 731 320 677 236 q 786 546 786 404 q 730 770 786 690 q 577 850 675 850 q 435 765 489 850 q 381 540 381 681 m 52 546 q 88 774 52 672 q 200 958 125 875 q 365 1073 270 1034 q 576 1112 460 1112 q 784 1074 688 1112 q 954 962 880 1036 q 1074 775 1034 881 q 1115 539 1115 668 q 1078 313 1115 415 q 966 131 1041 211 q 800 13 895 53 q 589 -26 705 -26 q 382 11 477 -26 q 214 123 287 49 q 92 310 133 205 q 52 546 52 415 m 472 1174 l 606 1367 l 807 1367 l 569 1174 l 472 1174 "},"˜":{"x_min":129,"x_max":566,"ha":694,"o":"m 197 892 l 129 892 q 179 1011 144 972 q 268 1051 213 1051 q 290 1049 278 1051 q 315 1044 301 1047 l 403 1022 q 420 1019 411 1020 q 437 1018 428 1018 q 476 1031 460 1018 q 498 1068 491 1044 l 566 1068 q 514 949 552 991 q 421 908 476 908 q 400 909 410 908 q 380 914 390 911 l 287 938 q 277 941 283 940 q 259 942 272 942 q 218 929 234 942 q 197 892 203 917 "},"ˇ":{"x_min":132,"x_max":562,"ha":694,"o":"m 132 1078 l 228 1078 l 347 976 l 465 1078 l 562 1078 l 427 885 l 266 885 l 132 1078 "},"Ÿ":{"x_min":-72,"x_max":987,"ha":911,"o":"m -72 1086 l 287 1086 l 421 763 q 449 684 442 713 q 458 629 457 655 l 467 629 q 499 754 467 675 q 502 761 501 759 l 635 1086 l 987 1086 l 625 389 l 625 0 l 297 0 l 297 389 l -72 1086 m 494 1182 l 494 1360 l 659 1360 l 659 1182 l 494 1182 m 254 1182 l 254 1360 l 419 1360 l 419 1182 l 254 1182 "},"€":{"x_min":-16,"x_max":1008,"ha":1007,"o":"m -16 415 l 23 504 l 104 504 l 104 527 q 104 555 104 537 q 105 583 105 574 l -11 583 l 27 672 l 116 672 q 269 970 149 864 q 574 1076 390 1076 q 863 985 754 1076 q 1001 724 972 895 l 713 724 q 665 800 700 773 q 577 828 629 828 q 480 788 519 828 q 423 672 441 749 l 762 672 l 725 583 l 413 583 q 411 562 411 573 q 411 528 411 551 l 411 504 l 692 504 l 654 415 l 417 415 q 471 277 431 323 q 575 232 510 232 q 667 267 629 232 q 720 367 705 303 l 1008 367 q 870 81 984 183 q 577 -20 757 -20 q 254 90 373 -20 q 110 415 135 201 l -16 415 "},"ß":{"x_min":74,"x_max":895,"ha":935,"o":"m 74 0 l 74 715 q 174 990 74 893 q 461 1088 275 1088 q 743 1005 635 1088 q 851 792 851 922 q 815 677 851 727 q 715 600 780 627 q 849 492 803 563 q 895 321 895 421 q 802 74 895 169 q 560 -20 709 -20 q 490 -15 522 -20 q 426 0 457 -10 l 426 229 q 455 223 441 225 q 482 221 469 221 q 570 260 534 221 q 606 360 606 300 q 567 462 606 423 q 467 501 528 501 q 446 499 456 501 q 426 496 436 498 l 426 672 q 444 669 435 670 q 463 668 454 668 q 540 696 511 668 q 570 772 570 724 q 541 839 570 811 q 475 868 513 868 q 398 834 426 868 q 370 744 370 801 l 370 0 l 74 0 "},"s":{"x_min":35,"x_max":813,"ha":848,"o":"m 35 268 l 312 268 q 343 188 316 214 q 425 163 371 163 q 494 180 468 163 q 521 225 521 197 q 391 291 521 266 q 351 300 366 297 q 118 394 188 336 q 49 550 49 451 q 144 742 49 674 q 413 810 239 810 q 691 744 596 810 q 789 553 786 679 l 525 553 q 494 611 519 592 q 421 630 469 630 q 360 617 383 630 q 337 583 337 604 q 357 554 337 566 q 421 533 377 542 q 506 517 452 527 q 676 472 642 491 q 781 379 750 431 q 813 245 813 328 q 714 47 813 117 q 432 -22 615 -22 q 135 50 234 -22 q 35 268 36 122 "},"?":{"x_min":1,"x_max":808,"ha":819,"o":"m 234 0 l 234 302 l 536 302 l 536 0 l 234 0 m 244 385 l 244 406 q 268 564 244 505 q 347 663 292 624 q 415 706 371 680 q 503 797 503 757 q 475 856 503 832 q 407 881 448 881 q 325 845 355 881 q 295 747 295 809 l 295 732 l 1 732 q 113 1017 7 919 q 413 1116 218 1116 q 698 1028 588 1116 q 808 802 808 940 q 767 661 808 718 q 618 540 726 603 q 599 529 611 536 q 524 436 524 487 l 524 385 l 244 385 "},"c":{"x_min":40,"x_max":885,"ha":925,"o":"m 885 328 q 768 68 873 159 q 479 -22 663 -22 q 156 87 273 -22 q 40 388 40 197 q 65 561 40 490 q 147 687 91 633 q 289 779 208 748 q 467 810 370 810 q 758 726 651 810 q 885 488 866 643 l 593 488 q 558 565 588 538 q 479 592 529 592 q 376 542 411 592 q 342 395 342 492 q 376 247 342 298 q 474 196 411 196 q 563 229 531 196 q 599 328 594 262 l 885 328 "},"¶":{"x_min":7,"x_max":689,"ha":694,"o":"m 689 907 l 620 907 l 620 0 l 482 0 l 482 907 l 387 907 l 387 0 l 249 0 l 249 532 q 73 601 139 537 q 7 766 7 666 q 78 937 7 872 q 269 1003 150 1003 l 689 1003 l 689 907 "},"•":{"x_min":208,"x_max":609,"ha":819,"o":"m 208 516 q 266 657 208 599 q 409 716 325 716 q 550 657 491 716 q 609 516 609 598 q 549 374 609 433 q 407 315 490 315 q 266 373 324 315 q 208 516 208 432 "},"(":{"x_min":74,"x_max":506,"ha":562,"o":"m 229 -247 q 111 102 149 -59 q 74 417 74 264 q 111 730 74 568 q 229 1086 148 891 l 506 1086 q 405 750 439 919 q 372 417 372 581 q 405 79 372 244 q 506 -247 438 -85 l 229 -247 "},"◊":{"x_min":4,"x_max":682,"ha":686,"o":"m 343 955 l 81 398 l 343 -158 l 604 398 l 343 955 m 343 1121 l 682 398 l 343 -324 l 4 398 l 343 1121 "},"­":{"x_min":35,"x_max":431,"ha":467,"o":"m 35 267 l 35 534 l 431 534 l 431 267 l 35 267 "},":":{"x_min":100,"x_max":403,"ha":503,"o":"m 100 486 l 100 787 l 403 787 l 403 486 l 100 486 m 100 0 l 100 302 l 403 302 l 403 0 l 100 0 "},"Û":{"x_min":93,"x_max":1044,"ha":1137,"o":"m 93 1086 l 411 1086 l 411 420 q 451 281 411 329 q 569 234 492 234 q 685 281 645 234 q 726 420 726 329 l 726 1086 l 1044 1086 l 1044 449 q 927 91 1044 207 q 566 -24 810 -24 q 209 92 325 -24 q 93 449 93 208 l 93 1086 m 354 1174 l 488 1367 l 649 1367 l 784 1174 l 687 1174 l 569 1275 l 450 1174 l 354 1174 "},"V":{"x_min":-36,"x_max":1012,"ha":982,"o":"m 304 0 l -36 1086 l 300 1086 l 452 523 q 480 391 471 450 q 489 282 489 332 l 500 282 q 512 415 504 355 q 532 521 519 475 l 688 1086 l 1012 1086 l 682 0 l 304 0 "}," ":{"x_min":0,"x_max":0,"ha":1007},"@":{"x_min":47,"x_max":1341,"ha":1389,"o":"m 841 617 l 874 673 l 1038 673 l 932 248 q 930 235 931 240 q 929 227 929 231 q 938 203 929 211 q 961 194 946 194 q 1118 290 1048 194 q 1188 515 1188 387 q 1069 773 1188 675 q 756 872 951 872 q 575 847 659 872 q 423 776 491 823 q 261 593 318 703 q 205 356 205 484 q 340 38 205 156 q 703 -80 475 -80 q 911 -48 811 -80 q 1100 47 1011 -16 l 1178 -61 q 946 -184 1067 -144 q 688 -224 825 -224 q 447 -187 560 -224 q 248 -80 334 -150 q 97 108 147 0 q 47 352 47 216 q 84 577 47 471 q 195 770 122 684 q 440 954 296 890 q 753 1019 584 1019 q 1178 879 1015 1019 q 1341 517 1341 739 q 1294 304 1341 401 q 1161 140 1248 207 q 1057 83 1114 102 q 939 63 1001 63 q 826 89 865 63 q 781 167 787 115 q 694 89 741 113 q 585 65 648 65 q 410 124 469 65 q 352 302 352 184 q 449 581 352 469 q 691 693 546 693 q 779 673 741 693 q 841 617 818 654 m 763 334 l 795 466 q 766 537 790 512 q 704 563 742 563 q 591 484 640 563 q 543 298 543 405 q 563 222 543 249 q 622 196 584 196 q 709 233 671 196 q 763 334 748 271 "},"¾":{"x_min":41,"x_max":1481,"ha":1501,"o":"m 1033 261 l 1199 261 l 1199 429 l 1033 261 m 1197 1 l 1197 129 l 896 129 l 896 280 l 1197 593 l 1392 593 l 1392 263 l 1481 263 l 1481 129 l 1392 129 l 1392 1 l 1197 1 m 403 -20 l 944 1076 l 1097 1076 l 555 -20 l 403 -20 m 54 856 q 128 1013 57 958 q 325 1069 199 1069 q 506 1023 439 1069 q 574 900 574 977 q 552 828 574 856 q 484 786 530 801 q 566 737 539 770 q 594 652 594 704 q 520 507 594 561 q 322 454 447 454 q 113 514 185 454 q 41 688 41 574 l 41 694 l 226 694 l 226 684 q 249 611 226 635 q 321 587 273 587 q 382 605 359 587 q 405 656 405 624 q 380 704 405 688 q 305 720 355 720 q 287 719 299 720 q 269 718 276 718 l 269 830 l 278 830 q 372 842 346 830 q 399 886 399 855 q 377 926 399 911 q 318 941 355 941 q 256 918 279 941 q 230 856 233 896 l 54 856 "},"i":{"x_min":81,"x_max":377,"ha":457,"o":"m 81 861 l 81 1086 l 377 1086 l 377 861 l 81 861 m 81 0 l 81 787 l 377 787 l 377 0 l 81 0 "},"≤":{"x_min":172,"x_max":986,"ha":1157,"o":"m 986 160 l 986 -24 l 172 -24 l 172 160 l 986 160 m 984 677 l 507 536 l 984 394 l 984 204 l 172 455 l 172 616 l 984 869 l 984 677 "},"m":{"x_min":78,"x_max":1311,"ha":1381,"o":"m 78 0 l 78 787 l 347 787 l 347 669 q 445 774 388 741 q 583 807 502 807 q 713 772 659 807 q 801 669 767 737 q 905 773 845 739 q 1047 807 965 807 q 1242 731 1174 807 q 1311 517 1311 656 l 1311 0 l 1018 0 l 1018 450 q 997 537 1018 511 q 930 564 976 564 q 863 534 887 564 q 839 450 839 504 l 839 0 l 549 0 l 549 445 q 526 534 549 504 q 461 564 504 564 q 391 534 412 564 q 370 436 370 504 l 370 0 l 78 0 "},"ž":{"x_min":56,"x_max":763,"ha":815,"o":"m 56 0 l 56 210 l 374 562 l 65 562 l 65 787 l 753 787 l 753 595 l 416 228 l 763 228 l 763 0 l 56 0 m 193 1078 l 289 1078 l 408 976 l 526 1078 l 623 1078 l 488 885 l 327 885 l 193 1078 "},"á":{"x_min":39,"x_max":895.234375,"ha":932,"o":"m 73 513 q 175 736 79 662 q 460 810 271 810 q 606 798 542 810 q 714 763 670 786 q 829 662 796 723 q 862 483 862 602 l 862 70 q 870 41 862 54 q 895 21 878 29 l 895 0 l 588 0 l 578 87 q 473 3 532 29 q 321 -22 414 -22 q 115 42 191 -22 q 39 215 39 106 q 108 381 39 323 q 344 468 177 439 q 407 478 367 472 q 563 550 563 502 q 538 597 563 581 q 467 614 514 614 q 386 589 413 614 q 352 513 358 565 l 73 513 m 574 358 q 472 316 544 333 q 463 314 466 314 q 351 276 376 293 q 327 232 327 259 q 355 185 327 204 q 428 167 383 167 q 537 207 499 167 q 575 325 575 248 q 575 345 575 338 q 574 358 575 352 m 375 885 l 509 1078 l 710 1078 l 472 885 l 375 885 "},"×":{"x_min":172,"x_max":1014,"ha":1157,"o":"m 592 546 l 881 835 l 1014 702 l 724 413 l 1014 124 l 881 -7 l 592 282 l 304 -7 l 172 124 l 461 413 l 172 702 l 304 835 l 592 546 "},"İ":{"x_min":104,"x_max":430,"ha":536,"o":"m 104 0 l 104 1086 l 430 1086 l 430 0 l 104 0 m 183 1179 l 183 1362 l 353 1362 l 353 1179 l 183 1179 "},"K":{"x_min":94,"x_max":1174,"ha":1147,"o":"m 94 0 l 94 1086 l 413 1086 l 413 709 l 748 1086 l 1150 1086 l 732 642 l 1174 0 l 782 0 l 501 434 l 413 347 l 413 0 l 94 0 "},"7":{"x_min":93,"x_max":942,"ha":1007,"o":"m 268 0 q 361 417 274 217 q 611 789 449 618 l 93 789 l 93 1059 l 942 1059 l 942 816 q 704 455 788 660 q 607 0 620 251 l 268 0 "},"¨":{"x_min":145,"x_max":550,"ha":694,"o":"m 385 893 l 385 1071 l 550 1071 l 550 893 l 385 893 m 145 893 l 145 1071 l 310 1071 l 310 893 l 145 893 "},"Y":{"x_min":-72,"x_max":987,"ha":911,"o":"m -72 1086 l 287 1086 l 421 763 q 449 684 442 713 q 458 629 457 655 l 467 629 q 499 754 467 675 q 502 761 501 759 l 635 1086 l 987 1086 l 625 389 l 625 0 l 297 0 l 297 389 l -72 1086 "},"E":{"x_min":94,"x_max":990,"ha":1044,"o":"m 94 0 l 94 1086 l 980 1086 l 980 823 l 409 823 l 409 681 l 903 681 l 903 440 l 409 440 l 409 273 l 990 273 l 990 0 l 94 0 "},"Ô":{"x_min":52,"x_max":1115,"ha":1164,"o":"m 381 540 q 435 315 381 395 q 589 236 490 236 q 731 320 677 236 q 786 546 786 404 q 730 770 786 690 q 577 850 675 850 q 435 765 489 850 q 381 540 381 681 m 52 546 q 88 774 52 672 q 200 958 125 875 q 365 1073 270 1034 q 576 1112 460 1112 q 784 1074 688 1112 q 954 962 880 1036 q 1074 775 1034 881 q 1115 539 1115 668 q 1078 313 1115 415 q 966 131 1041 211 q 800 13 895 53 q 589 -26 705 -26 q 382 11 477 -26 q 214 123 287 49 q 92 310 133 205 q 52 546 52 415 m 367 1174 l 501 1367 l 662 1367 l 797 1174 l 700 1174 l 582 1275 l 463 1174 l 367 1174 "},"Ï":{"x_min":66,"x_max":471,"ha":536,"o":"m 104 0 l 104 1086 l 430 1086 l 430 0 l 104 0 m 306 1182 l 306 1360 l 471 1360 l 471 1182 l 306 1182 m 66 1182 l 66 1360 l 231 1360 l 231 1182 l 66 1182 "},"‹":{"x_min":43,"x_max":307,"ha":345,"o":"m 43 260 l 43 537 l 307 751 l 307 488 l 175 399 l 307 311 l 307 50 l 43 260 "},"±":{"x_min":173,"x_max":985,"ha":1157,"o":"m 985 156 l 985 -28 l 173 -28 l 173 156 l 985 156 m 674 855 l 674 645 l 985 645 l 985 461 l 674 461 l 674 251 l 484 251 l 484 461 l 173 461 l 173 645 l 484 645 l 484 855 l 674 855 "},"ì":{"x_min":1,"x_max":377,"ha":457,"o":"m 81 0 l 81 787 l 377 787 l 377 0 l 81 0 m 336 885 l 238 885 l 1 1076 l 201 1076 l 336 885 "},"|":{"x_min":253,"x_max":444,"ha":694,"o":"m 444 1061 l 444 -328 l 253 -328 l 253 1061 l 444 1061 "},"§":{"x_min":7,"x_max":753,"ha":758,"o":"m 473 349 q 521 382 505 363 q 538 426 538 402 q 412 526 538 472 q 288 584 335 560 q 235 543 252 565 q 219 495 219 522 q 349 402 219 455 q 473 349 425 372 m 55 107 l 283 108 l 283 105 q 312 23 283 53 q 392 -6 341 -6 q 449 14 425 -6 q 473 61 473 34 q 451 105 473 87 q 355 150 429 123 l 241 196 q 66 309 126 239 q 7 471 7 379 q 38 590 7 541 q 139 680 69 640 q 80 757 100 712 q 61 858 61 802 q 140 1045 61 979 q 367 1112 220 1112 q 613 1041 528 1112 q 699 837 698 971 l 464 837 q 440 913 464 886 q 372 940 416 940 q 315 923 336 940 q 294 878 294 907 q 324 827 294 852 q 412 777 354 801 l 533 727 q 697 614 642 682 q 753 456 753 546 q 720 330 753 382 q 622 253 687 279 q 689 168 667 213 q 712 67 712 122 q 625 -114 712 -47 q 392 -182 539 -182 q 141 -109 225 -182 q 55 107 56 -37 "},"q":{"x_min":40,"x_max":871,"ha":949,"o":"m 339 392 q 368 246 339 293 q 459 199 398 199 q 551 246 522 199 q 581 392 581 293 q 551 538 581 490 q 459 586 521 586 q 368 538 398 586 q 339 392 339 491 m 585 699 l 585 787 l 871 787 l 871 -248 l 575 -248 l 575 72 q 487 2 539 25 q 366 -21 436 -21 q 128 90 216 -21 q 40 393 40 202 q 128 695 40 583 q 366 807 216 807 q 490 781 437 807 q 585 699 543 755 "},"b":{"x_min":78,"x_max":908,"ha":949,"o":"m 363 83 l 363 0 l 78 0 l 78 1086 l 374 1086 l 374 711 q 461 782 409 758 q 582 806 513 806 q 819 694 731 806 q 908 392 908 582 q 819 89 908 201 q 582 -22 731 -22 q 458 3 510 -22 q 363 83 405 28 m 610 392 q 580 538 610 491 q 489 586 551 586 q 397 538 426 586 q 367 392 367 490 q 397 246 367 293 q 489 199 426 199 q 580 246 551 199 q 610 392 610 293 "},"®":{"x_min":69,"x_max":1088,"ha":1157,"o":"m 558 682 l 532 682 l 532 551 l 568 551 q 627 567 607 551 q 648 617 648 584 q 626 666 648 650 q 558 682 604 682 m 584 790 q 764 748 702 790 q 826 627 826 707 q 796 536 826 574 q 715 479 767 497 l 835 239 l 646 239 l 548 450 l 532 450 l 532 239 l 358 239 l 358 790 l 584 790 m 984 502 q 953 657 984 583 q 866 788 922 731 q 734 877 807 847 q 578 908 661 908 q 422 878 495 908 q 293 791 349 849 q 204 657 235 732 q 173 502 173 583 q 203 348 173 421 q 292 217 234 274 q 423 127 350 158 q 578 97 497 97 q 733 128 659 97 q 867 218 807 159 q 954 346 925 274 q 984 502 984 419 m 577 1012 q 775 974 682 1012 q 940 863 868 936 q 1049 698 1011 792 q 1088 502 1088 605 q 1050 306 1088 397 q 940 145 1012 215 q 771 32 865 72 q 577 -7 677 -7 q 384 31 476 -7 q 219 144 293 70 q 107 308 146 216 q 69 502 69 401 q 107 698 69 604 q 220 866 146 791 q 382 974 290 937 q 577 1012 473 1012 "},"L":{"x_min":94,"x_max":849,"ha":888,"o":"m 94 0 l 94 1086 l 416 1086 l 416 277 l 849 277 l 849 0 l 94 0 "}," ":{"x_min":0,"x_max":0,"ha":503},"∑":{"x_min":40,"x_max":1040,"ha":1074,"o":"m 54 999 l 981 999 l 981 760 l 454 760 l 833 382 l 466 -25 l 1040 -25 l 1040 -266 l 40 -266 l 40 -130 l 490 369 l 54 796 l 54 999 "},"À":{"x_min":-54,"x_max":1034,"ha":993,"o":"m 413 379 l 607 379 l 548 614 q 530 718 537 658 q 519 854 523 778 l 510 854 q 500 731 508 791 q 476 613 492 671 l 413 379 m -54 0 l 347 1086 l 696 1086 l 1034 0 l 700 0 l 661 161 l 354 161 l 308 0 l -54 0 m 631 1174 l 533 1174 l 296 1365 l 496 1365 l 631 1174 "},"+":{"x_min":173,"x_max":985,"ha":1157,"o":"m 674 828 l 674 507 l 985 507 l 985 322 l 674 322 l 674 0 l 484 0 l 484 322 l 173 322 l 173 507 l 484 507 l 484 828 l 674 828 "},"½":{"x_min":120,"x_max":1451,"ha":1500,"o":"m 893 0 l 897 51 q 930 138 899 99 q 1053 236 961 177 q 1137 285 1084 255 q 1261 400 1261 356 q 1239 447 1261 429 q 1181 466 1217 466 q 1114 441 1137 466 q 1092 367 1092 416 l 1092 347 l 901 347 l 901 360 q 972 540 901 478 q 1177 603 1044 603 q 1375 549 1302 603 q 1448 405 1448 495 q 1426 324 1448 359 q 1340 244 1404 290 q 1267 200 1315 227 q 1163 144 1220 174 q 1209 149 1194 148 q 1235 151 1225 151 l 1451 151 l 1451 0 l 893 0 m 401 -20 l 943 1076 l 1095 1076 l 555 -20 l 401 -20 m 269 466 l 269 810 l 120 810 l 120 932 q 249 962 207 933 q 300 1059 291 991 l 461 1059 l 461 466 l 269 466 "},"Ë":{"x_min":94,"x_max":990,"ha":1044,"o":"m 94 0 l 94 1086 l 980 1086 l 980 823 l 409 823 l 409 681 l 903 681 l 903 440 l 409 440 l 409 273 l 990 273 l 990 0 l 94 0 m 595 1182 l 595 1360 l 760 1360 l 760 1182 l 595 1182 m 355 1182 l 355 1360 l 520 1360 l 520 1182 l 355 1182 "},"'":{"x_min":46,"x_max":221,"ha":267,"o":"m 221 977 l 221 595 l 46 595 l 46 977 l 221 977 "},"Š":{"x_min":58,"x_max":1012,"ha":1068,"o":"m 58 373 l 390 373 l 390 369 q 427 254 390 292 q 540 216 464 216 q 650 239 611 216 q 689 307 689 263 q 476 423 689 368 q 423 437 442 432 q 154 568 240 486 q 69 776 69 649 q 190 1024 69 934 q 526 1114 311 1114 q 853 1021 736 1114 q 975 760 970 928 l 660 760 q 625 852 658 823 q 518 881 591 881 q 424 858 458 881 q 390 799 390 836 q 618 683 390 741 l 627 681 q 787 635 738 652 q 865 600 837 618 q 977 491 943 550 q 1012 347 1012 432 q 889 73 1012 171 q 546 -25 767 -25 q 186 73 306 -25 q 58 373 65 172 m 319 1367 l 415 1367 l 534 1265 l 652 1367 l 749 1367 l 614 1174 l 453 1174 l 319 1367 "},"˛":{"x_min":231,"x_max":466,"ha":694,"o":"m 427 0 q 367 -64 386 -35 q 349 -121 349 -93 q 360 -159 349 -147 q 397 -172 372 -172 l 466 -172 l 466 -290 l 417 -290 q 273 -261 315 -290 q 231 -169 231 -233 q 261 -81 231 -122 q 355 0 292 -39 l 427 0 "},"ð":{"x_min":40,"x_max":882,"ha":922,"o":"m 459 178 q 547 223 517 178 q 578 354 578 268 q 547 486 578 441 q 459 532 517 532 q 372 486 402 532 q 343 354 343 441 q 372 222 343 267 q 459 178 402 178 m 465 736 q 423 781 446 759 q 373 822 400 803 l 148 710 l 105 800 l 270 885 l 206 926 l 294 1091 q 391 1041 344 1066 q 487 990 439 1017 l 677 1086 l 723 999 l 583 926 q 807 683 732 819 q 882 384 882 547 q 773 82 882 187 q 461 -22 665 -22 q 152 78 264 -22 q 40 355 40 179 q 153 634 40 533 q 465 736 267 736 "},"ş":{"x_min":35,"x_max":813,"ha":848,"o":"m 35 268 l 312 268 q 343 188 316 214 q 425 163 371 163 q 494 180 468 163 q 521 225 521 197 q 391 291 521 266 q 351 300 366 297 q 118 394 188 336 q 49 550 49 451 q 144 742 49 674 q 413 810 239 810 q 691 744 596 810 q 789 553 786 679 l 525 553 q 494 611 519 592 q 421 630 469 630 q 360 617 383 630 q 337 583 337 604 q 357 554 337 566 q 421 533 377 542 q 506 517 452 527 q 676 472 642 491 q 781 379 750 431 q 813 245 813 328 q 714 47 813 117 q 432 -22 615 -22 q 135 50 234 -22 q 35 268 36 122 m 271 -275 l 271 -191 q 365 -211 321 -204 q 435 -219 409 -219 q 477 -208 463 -219 q 492 -175 492 -197 q 476 -145 492 -154 q 421 -136 460 -136 q 400 -136 408 -136 q 387 -136 393 -136 l 387 0 l 462 0 l 462 -58 l 472 -58 q 583 -88 545 -58 q 622 -175 622 -118 q 579 -270 622 -236 q 459 -305 536 -305 q 372 -297 420 -305 q 271 -275 325 -290 "},"ı":{"x_min":81,"x_max":377,"ha":457,"o":"m 81 0 l 81 787 l 377 787 l 377 0 l 81 0 "},"Ć":{"x_min":52,"x_max":1050,"ha":1104,"o":"m 1043 691 l 729 691 q 682 811 724 767 q 571 856 639 856 q 430 776 480 856 q 380 551 380 696 q 430 315 380 400 q 570 231 480 231 q 688 284 642 231 q 737 427 733 337 l 1050 427 q 911 95 1039 216 q 571 -26 783 -26 q 189 128 326 -26 q 52 558 52 283 q 190 963 52 815 q 568 1112 329 1112 q 901 1003 778 1112 q 1043 691 1023 895 m 458 1174 l 592 1367 l 793 1367 l 555 1174 l 458 1174 "},"ä":{"x_min":39,"x_max":895.234375,"ha":932,"o":"m 73 513 q 175 736 79 662 q 460 810 271 810 q 606 798 542 810 q 714 763 670 786 q 829 662 796 723 q 862 483 862 602 l 862 70 q 870 41 862 54 q 895 21 878 29 l 895 0 l 588 0 l 578 87 q 473 3 532 29 q 321 -22 414 -22 q 115 42 191 -22 q 39 215 39 106 q 108 381 39 323 q 344 468 177 439 q 407 478 367 472 q 563 550 563 502 q 538 597 563 581 q 467 614 514 614 q 386 589 413 614 q 352 513 358 565 l 73 513 m 574 358 q 472 316 544 333 q 463 314 466 314 q 351 276 376 293 q 327 232 327 259 q 355 185 327 204 q 428 167 383 167 q 537 207 499 167 q 575 325 575 248 q 575 345 575 338 q 574 358 575 352 m 523 893 l 523 1071 l 688 1071 l 688 893 l 523 893 m 283 893 l 283 1071 l 448 1071 l 448 893 l 283 893 "},"¹":{"x_min":126,"x_max":483,"ha":664,"o":"m 282 424 l 282 792 l 126 792 l 126 924 q 262 956 218 925 q 316 1059 306 987 l 483 1059 l 483 424 l 282 424 "},"£":{"x_min":78,"x_max":971,"ha":1007,"o":"m 78 228 q 184 320 146 267 q 223 428 223 372 q 221 457 223 443 q 215 488 219 472 l 78 488 l 78 616 l 163 616 q 130 698 141 658 q 119 776 119 738 q 232 995 119 912 q 534 1078 345 1078 q 846 987 735 1078 q 957 731 957 896 q 956 718 957 727 q 955 705 955 710 l 664 705 l 664 707 q 628 809 664 769 q 541 849 593 849 q 452 820 488 849 q 417 751 417 792 q 455 657 417 724 q 478 616 470 630 l 638 616 l 638 488 l 509 488 q 468 382 506 432 q 345 276 430 332 q 428 295 393 289 q 491 302 463 302 q 608 284 531 302 q 723 266 685 266 q 807 282 767 266 q 893 336 847 298 l 971 76 q 866 7 923 30 q 745 -16 808 -16 q 551 27 689 -16 q 501 42 518 37 q 460 51 480 48 q 418 55 440 55 q 325 35 377 55 q 218 -21 273 15 l 78 228 "},"W":{"x_min":-12,"x_max":1336,"ha":1329,"o":"m 257 0 l -12 1086 l 287 1086 l 388 597 q 405 486 399 547 q 414 353 411 425 l 421 353 q 426 467 421 407 q 444 595 432 528 l 527 1086 l 795 1086 l 881 597 q 900 464 894 523 q 906 353 906 404 l 911 353 q 919 491 913 429 q 934 595 925 553 l 1037 1086 l 1336 1086 l 1073 0 l 754 0 l 687 416 q 668 554 674 498 q 663 659 663 609 l 657 659 q 650 539 655 599 q 636 417 645 479 l 571 0 l 257 0 "},"Ğ":{"x_min":52,"x_max":1102,"ha":1175,"o":"m 865 116 q 735 9 810 45 q 565 -26 660 -26 q 356 16 451 -26 q 193 142 262 59 q 87 329 123 225 q 52 555 52 434 q 96 799 52 691 q 228 987 140 907 q 386 1081 298 1051 q 586 1112 474 1112 q 922 1005 793 1112 q 1073 711 1051 898 l 750 711 q 702 820 743 781 q 593 860 660 860 q 434 781 487 860 q 381 546 381 703 q 438 314 381 396 q 599 232 495 232 q 727 272 674 232 q 785 374 779 312 l 656 374 l 656 599 l 1102 599 l 1102 0 l 875 0 l 865 116 m 374 1367 l 464 1367 q 500 1304 470 1324 q 587 1285 530 1285 q 675 1304 645 1285 q 711 1367 704 1324 l 801 1367 q 739 1220 790 1267 q 587 1174 687 1174 q 436 1220 488 1174 q 374 1367 384 1267 "},"v":{"x_min":-21,"x_max":827,"ha":806,"o":"m 224 0 l -21 787 l 293 787 l 365 444 q 390 312 383 361 q 400 219 397 263 l 411 219 q 423 334 416 278 q 443 442 431 389 l 514 787 l 827 787 l 585 0 l 224 0 "},">":{"x_min":179,"x_max":978,"ha":1157,"o":"m 978 509 l 978 319 l 179 -11 l 179 191 l 722 413 l 179 635 l 179 840 l 978 509 "},"û":{"x_min":71,"x_max":877,"ha":954,"o":"m 877 787 l 877 0 l 596 0 l 596 121 q 481 15 545 50 q 336 -20 416 -20 q 141 61 212 -20 q 71 287 71 143 l 71 787 l 367 787 l 367 335 q 393 254 367 283 q 469 226 420 226 q 549 256 518 226 q 581 335 581 287 l 581 787 l 877 787 m 263 885 l 397 1078 l 558 1078 l 693 885 l 596 885 l 478 986 l 359 885 l 263 885 "},"Ð":{"x_min":1.359375,"x_max":1058,"ha":1112,"o":"m 412 257 l 513 257 q 673 337 614 257 q 732 555 732 417 q 673 758 732 681 q 520 836 614 836 l 412 836 l 412 633 l 552 633 l 552 491 l 412 491 l 412 257 m 94 0 l 94 491 l 1 491 l 1 633 l 94 633 l 94 1086 l 553 1086 q 732 1068 661 1086 q 856 1010 803 1050 q 1005 817 952 937 q 1058 549 1058 697 q 1010 292 1058 402 q 860 95 963 183 q 725 23 803 46 q 541 0 648 0 l 94 0 "},"r":{"x_min":81,"x_max":615,"ha":635,"o":"m 81 0 l 81 787 l 356 787 l 356 655 q 444 766 379 728 q 615 807 509 804 l 615 536 q 585 540 600 539 q 553 542 570 542 q 424 495 470 542 q 379 364 379 449 l 379 0 l 81 0 "},"Č":{"x_min":52,"x_max":1050,"ha":1104,"o":"m 1043 691 l 729 691 q 682 811 724 767 q 571 856 639 856 q 430 776 480 856 q 380 551 380 696 q 430 315 380 400 q 570 231 480 231 q 688 284 642 231 q 737 427 733 337 l 1050 427 q 911 95 1039 216 q 571 -26 783 -26 q 189 128 326 -26 q 52 558 52 283 q 190 963 52 815 q 568 1112 329 1112 q 901 1003 778 1112 q 1043 691 1023 895 m 353 1367 l 449 1367 l 568 1265 l 686 1367 l 783 1367 l 648 1174 l 487 1174 l 353 1367 "},"x":{"x_min":-11,"x_max":814,"ha":802,"o":"m -11 0 l 238 394 l -11 787 l 294 787 l 364 656 q 389 597 380 624 q 398 544 397 569 l 404 544 q 413 594 404 568 q 438 655 421 620 l 510 787 l 814 787 l 568 394 l 814 0 l 505 0 l 438 128 q 412 191 420 165 q 402 239 403 216 l 398 239 q 389 188 397 214 q 364 130 381 163 l 294 0 l -11 0 "},"è":{"x_min":37,"x_max":885,"ha":920,"o":"m 872 243 q 733 49 843 121 q 465 -22 623 -22 q 152 91 268 -22 q 37 399 37 205 q 154 695 37 580 q 458 810 272 810 q 771 685 657 810 q 885 339 885 560 l 885 321 l 322 321 q 372 219 332 255 q 473 183 412 183 q 540 198 512 183 q 581 243 568 214 l 872 243 m 328 486 l 600 486 q 553 574 589 543 q 461 605 517 605 q 376 573 411 605 q 328 486 342 542 m 580 885 l 482 885 l 245 1076 l 445 1076 l 580 885 "},"Ø":{"x_min":52,"x_max":1115,"ha":1164,"o":"m 212 123 q 91 314 130 211 q 52 546 52 418 q 88 773 52 670 q 199 955 125 875 q 364 1072 270 1032 q 568 1112 458 1112 q 727 1092 653 1112 q 869 1033 802 1073 l 960 1158 l 1055 1090 l 960 956 q 1077 769 1039 869 q 1115 548 1115 669 q 1078 315 1115 418 q 967 131 1042 212 q 803 14 897 54 q 600 -26 709 -26 q 438 -6 511 -26 q 303 53 365 13 l 203 -87 l 109 -16 l 212 123 m 398 382 l 712 808 q 648 844 679 832 q 587 857 618 857 q 432 768 488 857 q 377 522 377 680 q 382 449 377 484 q 398 382 387 414 m 768 705 l 456 278 q 518 242 488 254 q 579 231 548 231 q 734 318 679 231 q 790 563 790 405 q 784 637 790 602 q 768 705 779 673 "},"÷":{"x_min":172,"x_max":983,"ha":1157,"o":"m 578 251 q 664 214 628 251 q 701 127 701 177 q 664 40 701 77 q 576 4 628 4 q 489 39 525 4 q 454 127 454 75 q 490 215 454 179 q 578 251 526 251 m 983 507 l 983 322 l 172 322 l 172 507 l 983 507 m 578 825 q 664 787 628 825 q 701 700 701 750 q 664 614 701 650 q 576 578 628 578 q 489 613 525 578 q 454 700 454 649 q 490 788 454 752 q 578 825 526 825 "},"h":{"x_min":81,"x_max":887,"ha":958,"o":"m 81 0 l 81 1086 l 377 1086 l 377 680 q 481 775 420 743 q 621 807 542 807 q 816 725 745 807 q 887 499 887 643 l 887 0 l 591 0 l 591 451 q 564 532 591 504 q 488 561 537 561 q 408 530 440 561 q 377 451 377 499 l 377 0 l 81 0 "},".":{"x_min":100,"x_max":403,"ha":503,"o":"m 100 0 l 100 302 l 403 302 l 403 0 l 100 0 "},"f":{"x_min":8,"x_max":519,"ha":518,"o":"m 102 0 l 102 594 l 8 594 l 8 787 l 102 787 q 100 800 100 793 q 99 821 99 808 q 172 1021 99 957 q 398 1086 245 1086 l 519 1086 l 519 880 q 506 880 513 880 q 487 881 499 881 q 417 862 438 881 q 395 801 395 843 l 395 787 l 519 787 l 519 594 l 398 594 l 398 0 l 102 0 "},"“":{"x_min":109,"x_max":753,"ha":860,"o":"m 753 864 l 753 597 l 486 597 l 486 812 q 557 1030 486 949 q 750 1112 629 1112 l 753 1112 l 753 994 q 667 953 696 985 q 638 868 638 920 l 638 864 l 753 864 m 376 864 l 376 597 l 109 597 l 109 812 q 180 1030 109 949 q 373 1112 252 1112 l 376 1112 l 376 994 q 290 953 319 985 q 261 868 261 920 l 261 864 l 376 864 "},"A":{"x_min":-54,"x_max":1034,"ha":993,"o":"m 413 379 l 607 379 l 548 614 q 530 718 537 658 q 519 854 523 778 l 510 854 q 500 731 508 791 q 476 613 492 671 l 413 379 m -54 0 l 347 1086 l 696 1086 l 1034 0 l 700 0 l 661 161 l 354 161 l 308 0 l -54 0 "},"O":{"x_min":52,"x_max":1115,"ha":1164,"o":"m 381 540 q 435 315 381 395 q 589 236 490 236 q 731 320 677 236 q 786 546 786 404 q 730 770 786 690 q 577 850 675 850 q 435 765 489 850 q 381 540 381 681 m 52 546 q 88 774 52 672 q 200 958 125 875 q 365 1073 270 1034 q 576 1112 460 1112 q 784 1074 688 1112 q 954 962 880 1036 q 1074 775 1034 881 q 1115 539 1115 668 q 1078 313 1115 415 q 966 131 1041 211 q 800 13 895 53 q 589 -26 705 -26 q 382 11 477 -26 q 214 123 287 49 q 92 310 133 205 q 52 546 52 415 "},"π":{"x_min":28,"x_max":1154,"ha":1164,"o":"m 1126 574 l 1004 574 l 923 0 l 640 0 l 720 574 l 566 574 l 486 0 l 202 0 l 283 574 l 263 574 q 224 548 242 574 q 202 484 207 523 l 28 484 q 114 683 52 630 q 326 737 176 737 l 1154 737 l 1126 574 "},"‘":{"x_min":109,"x_max":376,"ha":485,"o":"m 376 864 l 376 597 l 109 597 l 109 812 q 180 1030 109 949 q 373 1112 252 1112 l 376 1112 l 376 994 q 290 953 319 985 q 261 868 261 920 l 261 864 l 376 864 "},"3":{"x_min":65,"x_max":945,"ha":1007,"o":"m 86 700 q 203 978 90 879 q 518 1078 316 1078 q 806 996 699 1078 q 913 778 913 915 q 878 651 913 700 q 770 576 843 602 q 901 486 858 545 q 945 334 945 427 q 828 75 945 171 q 514 -20 712 -20 q 180 87 295 -20 q 65 398 65 194 l 65 409 l 359 409 l 359 391 q 397 261 359 304 q 512 218 436 218 q 608 252 572 218 q 645 341 645 286 q 604 427 645 398 q 485 456 564 456 q 464 455 476 456 q 429 453 453 454 l 429 653 l 442 653 q 593 675 552 653 q 635 752 635 697 q 600 823 635 797 q 507 850 566 850 q 407 811 442 850 q 367 700 371 772 l 86 700 "},"9":{"x_min":39,"x_max":959,"ha":1007,"o":"m 640 695 q 597 802 640 759 q 491 845 555 845 q 383 802 425 845 q 341 695 341 760 q 383 587 341 629 q 491 545 425 545 q 598 587 556 545 q 640 695 640 629 m 642 396 q 545 340 597 358 q 430 323 493 323 q 149 428 259 323 q 39 697 39 533 q 158 974 39 870 q 478 1078 278 1078 q 834 933 709 1078 q 959 523 959 789 q 831 125 959 271 q 484 -20 703 -20 q 200 61 313 -20 q 67 281 87 143 l 359 281 q 409 223 375 243 q 488 204 442 204 q 596 254 556 204 q 642 396 636 304 "},"l":{"x_min":81,"x_max":382,"ha":463,"o":"m 81 0 l 81 1086 l 382 1086 l 382 0 l 81 0 "},"":{"x_min":8.15625,"x_max":898,"ha":978,"o":"m 602 0 l 602 787 l 898 787 l 898 0 l 602 0 m 602 861 l 602 1086 l 898 1086 l 898 861 l 602 861 m 102 0 l 102 594 l 8 594 l 8 787 l 102 787 q 100 800 101 793 q 100 821 100 808 q 173 1021 100 957 q 398 1086 245 1086 l 518 1086 l 518 880 q 506 880 513 880 q 486 881 498 881 q 416 862 438 881 q 395 801 395 843 l 395 787 l 518 787 l 518 594 l 398 594 l 398 0 l 102 0 "},"4":{"x_min":46,"x_max":974,"ha":1007,"o":"m 263 466 l 528 466 l 528 766 l 263 466 m 524 2 l 524 231 l 46 231 l 46 501 l 524 1060 l 833 1060 l 833 468 l 974 468 l 974 231 l 833 231 l 833 2 l 524 2 "},"Ü":{"x_min":93,"x_max":1044,"ha":1137,"o":"m 93 1086 l 411 1086 l 411 420 q 451 281 411 329 q 569 234 492 234 q 685 281 645 234 q 726 420 726 329 l 726 1086 l 1044 1086 l 1044 449 q 927 91 1044 207 q 566 -24 810 -24 q 209 92 325 -24 q 93 449 93 208 l 93 1086 m 607 1182 l 607 1360 l 772 1360 l 772 1182 l 607 1182 m 367 1182 l 367 1360 l 532 1360 l 532 1182 l 367 1182 "},"à":{"x_min":39,"x_max":895.234375,"ha":932,"o":"m 73 513 q 175 736 79 662 q 460 810 271 810 q 606 798 542 810 q 714 763 670 786 q 829 662 796 723 q 862 483 862 602 l 862 70 q 870 41 862 54 q 895 21 878 29 l 895 0 l 588 0 l 578 87 q 473 3 532 29 q 321 -22 414 -22 q 115 42 191 -22 q 39 215 39 106 q 108 381 39 323 q 344 468 177 439 q 407 478 367 472 q 563 550 563 502 q 538 597 563 581 q 467 614 514 614 q 386 589 413 614 q 352 513 358 565 l 73 513 m 574 358 q 472 316 544 333 q 463 314 466 314 q 351 276 376 293 q 327 232 327 259 q 355 185 327 204 q 428 167 383 167 q 537 207 499 167 q 575 325 575 248 q 575 345 575 338 q 574 358 575 352 m 595 885 l 497 885 l 260 1076 l 460 1076 l 595 885 "},"ó":{"x_min":40,"x_max":882,"ha":922,"o":"m 459 196 q 547 246 517 196 q 578 393 578 296 q 547 541 578 490 q 459 592 517 592 q 372 541 402 592 q 343 393 343 491 q 372 245 343 295 q 459 196 402 196 m 461 -22 q 152 88 265 -22 q 40 393 40 199 q 152 698 40 586 q 461 810 265 810 q 769 698 657 810 q 882 393 882 586 q 769 88 882 199 q 461 -22 657 -22 m 351 885 l 485 1078 l 686 1078 l 448 885 l 351 885 "}}}
